<?xml version="1.0" encoding="UTF-8"?>
<!DOCTYPE svg PUBLIC "-//W3C//DTD SVG 1.0//EN" "http://www.w3.org/TR/2001/REC-SVG-20010904/DTD/svg10.dtd">
<!-- Creator: CorelDRAW X8 -->
<svg xmlns="http://www.w3.org/2000/svg" xml:space="preserve" width="100%" height="100%" version="1.0" style="shape-rendering:geometricPrecision; text-rendering:geometricPrecision; image-rendering:optimizeQuality; fill-rule:evenodd; clip-rule:evenodd"
viewBox="0 0 835 835"
 xmlns:xlink="http://www.w3.org/1999/xlink">
 <defs>
  <style type="text/css">
   <![CDATA[
    .str0 {stroke:black;stroke-width:6.94488}
    .fil1 {fill:none}
    .fil2 {fill:none;fill-rule:nonzero}
    .fil4 {fill:black;fill-rule:nonzero}
    .fil3 {fill:black;fill-rule:nonzero}
    .fil0 {fill:red;fill-rule:nonzero}
   ]]>
  </style>
   <clipPath id="id0" style="clip-rule:nonzero">
    <path d="M418 835c-10,0 -20,0 -29,-1 -1,-2 -1,-5 -1,-7 -1,-5 -1,-8 -3,-12l0 0c-1,0 -1,1 -1,1 -5,3 -14,14 -16,16 -2,-1 -5,-4 -6,-5l-4 -3c-1,-1 -1,-1 -2,0 0,0 -1,3 -1,7 -35,-5 -68,-15 -100,-28 3,-6 6,-10 5,-11 0,0 1,0 0,-1 -2,0 -11,1 -13,1 -1,-2 -2,-9 -2,-12 -1,-5 -1,-8 -3,-12l0 0c-1,0 -1,0 -1,1 -5,3 -14,14 -17,15 -1,0 -4,-3 -5,-4l-4 -3c-1,-1 -1,-1 -2,0 0,0 -1,2 -1,5l-3 -2c-14,-8 -26,-16 -38,-25l5 -15c5,2 12,5 17,7 3,2 14,8 16,8 1,-3 -4,-9 -5,-12 0,-2 2,-2 5,-3 7,-1 26,-5 31,-8l0 0c-1,-2 -7,-4 -9,-6 1,-3 11,-9 14,-14 3,-4 -4,-4 -7,-4 -2,0 -4,0 -5,0 -1,0 -5,0 -5,-1 -1,-2 3,-10 3,-13 -2,-1 -5,1 -6,2l-5 2c0,0 -1,0 -1,0 -1,1 -11,5 -12,4 -1,-1 1,-4 1,-5 2,-6 14,-28 14,-29 0,0 1,0 -1,-1 -1,0 -11,1 -13,1 -1,-2 -1,-9 -2,-12 0,-5 0,-8 -2,-12l-1 0c0,0 0,0 -1,1 -4,3 -13,14 -16,15 -2,0 -4,-3 -5,-4l-4 -3c-2,-1 -2,-1 -2,-1 -2,1 -5,28 -7,35 0,1 -1,1 -1,1 -2,1 -8,-9 -9,-11 0,-1 0,-1 0,-1 -2,-2 -4,-7 -6,-8 -2,2 -3,11 -5,12 -1,1 -1,0 -2,-1 -1,0 -2,-1 -3,-1 -1,-1 -2,-2 -4,-3 -2,-1 -8,-6 -8,0 0,5 4,16 3,19 -3,0 -9,-2 -11,-1l0 0c3,6 15,20 20,25 3,3 4,4 3,5 -2,1 -5,3 -6,3 -1,1 -1,1 -2,1 -15,-13 -28,-27 -40,-42l0 0 0 0c0,-1 -2,-2 -3,-3 -2,-2 -3,-4 -4,-6 3,-3 9,-7 12,-11 3,-4 -4,-4 -7,-4 -2,0 -4,0 -5,0 -2,0 -5,0 -5,-1 -1,-2 3,-10 3,-13 -2,-1 -5,1 -6,2l-5 1c0,1 -1,1 -1,1 -1,0 -2,1 -4,2 -1,-3 -3,-5 -5,-8 4,-8 12,-23 12,-24 0,-1 0,0 -1,-1 -1,0 -11,1 -13,1 -1,-2 -1,-9 -2,-12 0,-5 -1,-8 -2,-12l-1 0c0,0 0,0 -1,1 -3,2 -8,8 -12,12 -7,-13 -13,-25 -18,-38 9,-2 24,-5 29,-8l0 0c-1,-2 -7,-4 -10,-6 1,-3 11,-9 14,-13 4,-5 -4,-5 -7,-5 -1,0 -3,0 -5,0 -1,0 -4,0 -5,-1 -1,-2 4,-10 4,-13 -2,0 -5,1 -7,2l-4 2c-1,0 -1,0 -2,0 -1,1 -10,5 -11,4 -1,-1 0,-4 1,-5 2,-5 14,-28 13,-29 0,0 1,0 0,-1 -2,0 -11,1 -13,1 -1,-2 -2,-9 -2,-12 -1,-5 -1,-8 -3,-12l0 0c-1,0 -1,0 -1,1 -4,2 -10,9 -14,13 -2,-14 -4,-29 -5,-45 7,-1 15,-3 18,-5l0 0c-1,-2 -7,-4 -9,-6 1,-3 11,-9 14,-14 3,-4 -4,-4 -7,-4 -2,0 -4,0 -5,0 -1,0 -5,0 -5,-1 -1,-2 3,-10 3,-13 -2,-1 -5,1 -6,2l-4 1c1,-24 4,-48 8,-72 5,7 13,15 17,20 2,2 4,3 2,5 -1,1 -4,2 -5,3 -2,0 -5,2 -6,3 2,2 14,3 18,4 5,1 13,2 18,4l-7 19c0,3 0,4 2,5l1 1c2,-1 3,-1 4,-3l6 -19c5,1 13,4 18,7 3,1 13,7 16,7 0,-3 -5,-9 -5,-12 -1,-2 1,-2 5,-3 7,-1 25,-5 31,-7l0 -1c-1,-2 -7,-4 -9,-6 0,-3 10,-9 14,-13 3,-5 -5,-4 -7,-5 -2,0 -4,0 -6,0 -1,0 -4,0 -5,-1 -1,-2 4,-10 4,-13 -2,0 -5,1 -7,2l-4 2c-1,0 -1,0 -1,0 -2,1 -11,5 -12,4 -1,-1 0,-4 1,-5 2,-5 14,-28 14,-29 -1,0 0,0 -1,0 -2,-1 -11,1 -13,0 -1,-2 -2,-9 -2,-12 -1,-5 -1,-8 -2,-12l-1 0c0,1 -1,1 -1,1 -4,3 -13,14 -16,16 -2,-1 -5,-3 -6,-5l-4 -3c-1,-1 -1,0 -2,0 -1,1 -4,28 -6,34 -1,1 -1,1 -2,2 -1,0 -7,-10 -8,-12 0,-1 0,-1 -1,-1 -1,-2 -3,-7 -5,-8 -2,3 -4,12 -5,13 -1,0 -1,0 -3,-1 -1,-1 -1,-1 -2,-2 -1,-1 -3,-2 -4,-3 -2,-1 -4,-2 -6,-3 4,-17 10,-34 17,-51 2,1 4,2 5,3 3,1 14,7 16,7 1,-3 -4,-9 -5,-12 0,-2 2,-2 5,-3 8,-1 26,-5 31,-7l0 -1c-1,-2 -6,-4 -9,-6 1,-3 11,-9 14,-13 3,-5 -4,-5 -7,-5 -2,0 -3,0 -5,0 -1,0 -5,0 -5,-1 -1,-2 4,-10 3,-13 -2,0 -5,1 -6,2l-4 2c-1,0 -1,0 -2,0 -1,1 -6,3 -9,4l2 -4c9,-14 18,-28 27,-41 4,1 13,2 16,3 5,1 13,3 18,5l-6 19c-1,2 -1,3 1,4l1 1c2,-1 3,0 4,-3l6 -19c5,1 13,5 18,7 3,1 13,7 16,7 0,-2 -5,-9 -5,-12 -1,-2 1,-2 5,-2 7,-2 26,-5 31,-8l0 -1c-1,-2 -7,-4 -9,-6 1,-3 11,-8 14,-13 3,-4 -5,-4 -7,-4 -2,-1 -4,-1 -6,-1 -1,0 -4,0 -5,-1 0,-2 4,-9 4,-13 -2,0 -5,2 -7,2l-4 2c0,0 -1,0 -1,1 -2,0 -11,5 -12,3 -1,-1 0,-4 1,-5 2,-5 14,-27 14,-29 -1,0 0,0 -1,0 -2,-1 -11,1 -13,0 -1,-2 -2,-8 -2,-11 11,-8 22,-16 33,-24 3,3 6,7 8,9 2,2 3,4 2,5 -1,1 -4,2 -6,3 -1,1 -4,2 -5,3 2,2 14,3 17,4 5,1 14,3 18,5l-6 19c-1,2 0,3 1,4l2 1c2,-1 3,0 4,-3l6 -19c5,1 13,5 17,7 4,1 14,7 16,7 1,-2 -4,-9 -5,-12 0,-2 2,-2 5,-2 8,-2 26,-5 31,-8l1 -1c-1,-2 -7,-4 -10,-6 1,-3 11,-8 14,-13 3,-4 -4,-4 -7,-4 -2,-1 -3,-1 -5,-1 -1,0 -4,0 -5,-1 -1,-2 4,-9 3,-13 -1,0 -5,2 -6,2l-4 2c-1,0 -1,0 -2,1 -1,0 -10,5 -12,3 0,-1 1,-4 1,-5 3,-5 15,-27 14,-29 0,0 1,0 -1,0 0,0 -2,0 -4,0 9,-3 18,-7 27,-9 4,0 9,1 11,1 5,1 13,3 18,5l-6 19c-1,3 0,3 1,5l2 0c2,0 2,0 3,-3l7 -19c5,1 12,5 17,7 3,2 13,8 16,7 0,-2 -4,-8 -5,-11 0,-2 2,-2 5,-3 7,-2 26,-5 31,-8l0 0c-1,-3 -7,-5 -9,-6 1,-3 8,-8 12,-12 6,0 13,0 19,0l53 0c-2,8 -3,16 -4,20 -1,1 -1,1 -1,1 -2,1 -8,-10 -9,-11 0,-1 0,-1 0,-2 -2,-2 -4,-6 -6,-7 -2,2 -3,11 -5,12 -1,1 -1,0 -2,-1 -1,0 -2,-1 -3,-1 -1,-1 -3,-2 -4,-3 -3,-2 -8,-6 -8,0 0,5 4,16 3,18 -3,1 -9,-1 -11,0l0 0c3,6 15,19 20,25 2,3 4,4 3,5 -2,1 -5,2 -6,3 -2,1 -5,2 -5,4 2,1 13,3 17,3 5,1 13,3 18,5l-6 19c-1,3 0,3 1,5l2 0c2,0 2,0 3,-3l7 -19c5,1 12,5 17,7 3,2 13,8 16,7 1,-2 -4,-8 -5,-11 0,-2 2,-2 5,-3 7,-2 26,-5 31,-8l0 0c-1,-2 -7,-4 -9,-6 1,-3 11,-9 14,-14 3,-4 -4,-4 -7,-4 -2,0 -4,0 -5,0 -2,0 -5,0 -5,-1 -1,-2 3,-10 3,-13 -2,-1 -5,1 -6,1l-5 2c0,1 -1,1 -1,1 -1,1 -11,5 -12,3 -1,-1 1,-3 1,-4 2,-6 14,-28 14,-29 0,-1 0,0 -1,-1 -2,0 -11,1 -13,1l0 -1 64 0 -5 13c0,3 0,3 2,5l1 0c2,0 3,0 4,-3l5 -15 12 0c2,1 5,2 7,3 3,2 13,8 16,7 0,-2 -4,-7 -5,-10l63 0c5,6 14,17 18,21 2,3 4,4 2,5 -1,1 -4,3 -5,3 -2,1 -5,2 -6,4 2,2 14,3 18,3 5,1 13,3 18,5l-7 19c0,3 0,3 2,5l1 0c2,0 3,0 4,-3l6 -19c5,2 13,5 18,7 3,2 13,8 16,7 0,-2 -5,-8 -5,-11 -1,-2 1,-2 5,-3 7,-2 25,-5 31,-8l0 0c-1,-2 -7,-4 -9,-6 0,-3 10,-9 14,-14 3,-4 -5,-4 -7,-4 -2,0 -4,0 -6,0 -1,0 -4,0 -5,-1 0,-2 2,-6 3,-10l58 0 0 30 -1 -1c0,0 -1,0 -2,-1 -1,-1 -3,-2 -4,-3 -3,-1 -9,-6 -9,0 0,5 5,16 4,19 -3,0 -9,-2 -11,-1l0 0c2,6 15,20 20,25 2,3 4,4 2,5 -1,2 -4,3 -5,3 -2,1 -5,2 -6,4 2,1 8,2 12,3l0 125 -4 0 0 -4c-1,-5 -1,-8 -3,-12l0 0c-1,0 -1,0 -1,1 -4,2 -13,13 -16,15l-1 0c-2,-1 -4,-3 -5,-4l-4 -3c-1,-1 -1,-1 -2,-1 0,1 -1,4 -2,8l-87 0c-1,0 -1,0 -1,0 -1,-2 4,-10 4,-13 -2,-1 -5,1 -7,1l-4 2c-1,1 -1,1 -2,1 -1,0 -10,5 -11,3 -1,-1 0,-3 1,-4 2,-6 14,-28 13,-29 0,-1 1,0 0,-1 -2,0 -11,1 -13,0 -1,-2 -2,-9 -2,-11 -1,-5 -1,-8 -3,-12l0 0c-1,0 -1,0 -1,0 -5,3 -14,15 -16,16 -2,0 -5,-3 -6,-4l-4 -3c-1,-1 -1,-1 -2,-1 -1,1 -4,28 -7,35 0,1 0,1 -1,1 -1,1 -7,-10 -8,-11 -1,-1 -1,-1 -1,-2 -1,-2 -4,-7 -5,-7 -3,2 -4,11 -5,12 -1,0 -2,0 -3,-1 -1,0 -1,-1 -2,-1 -2,-1 -3,-2 -5,-3 -2,-2 -8,-6 -8,0 0,5 5,15 4,18 -3,0 -9,-1 -11,0l-1 0c2,3 6,9 11,14l-67 0c1,-2 -4,-9 -4,-11 -1,-2 1,-2 4,-3 8,-2 26,-5 32,-8l0 -1c-1,-2 -7,-4 -10,-6 1,-3 11,-8 14,-13 3,-4 -4,-4 -7,-4 -1,0 -3,0 -5,-1 -1,0 -4,1 -5,-1 -1,-1 4,-9 3,-12 -1,-1 -4,1 -6,1l-4 2c-1,0 -1,1 -2,1 -1,0 -10,5 -11,3 -1,-1 0,-3 1,-4 2,-6 14,-28 13,-29 0,-1 1,-1 0,-1 -2,0 -11,1 -13,0 -1,-2 -2,-9 -2,-12 -1,-4 -1,-7 -3,-11l0 0c-1,0 -1,0 -1,0 -5,3 -14,15 -17,16 -1,-1 -4,-3 -5,-4l-4 -3c-1,-1 -1,-1 -2,-1 -1,1 -4,28 -7,34 0,2 0,2 -1,2 -1,1 -7,-10 -8,-11 -1,-1 -1,-1 -1,-2 -1,-2 -4,-7 -5,-7 -3,2 -4,11 -5,12 -1,0 -2,0 -3,-1 -1,0 -1,-1 -2,-1 -2,-1 -3,-2 -5,-3 -2,-2 -8,-6 -8,-1 0,6 5,16 4,19 -3,0 -9,-1 -11,0l-1 0c3,5 16,19 21,25 2,2 4,4 2,5 -1,1 -4,2 -6,3 -1,1 -4,2 -5,3 2,2 14,4 17,4 6,1 14,3 19,5l-6 16 -50 0c2,-5 4,-9 4,-9 0,-1 0,-1 -1,-1 -2,0 -11,1 -13,0 -1,-2 -2,-9 -2,-12 0,-4 -1,-7 -2,-11l-1 0c0,0 -1,0 -1,0 -4,3 -13,15 -16,16 -2,-1 -4,-3 -6,-4l-4 -3c-1,-1 -1,-1 -1,-1 -1,1 -3,15 -5,25 -4,1 -7,1 -11,1 0,0 -1,-1 -1,-1 0,-1 0,-1 -1,-2 -1,-2 -3,-7 -5,-7 -2,2 -3,11 -5,12l0 0 -1 0c0,0 -1,0 -2,-1 0,0 -1,-1 -2,-1 -1,-1 -3,-2 -4,-3 -3,-2 -8,-6 -8,-1 0,3 0,6 1,9 -36,9 -67,28 -95,56 -2,2 -5,4 -7,7 -2,-1 -3,-1 -3,2 0,0 0,1 0,1 -12,14 -22,29 -30,46l0 -1 -1 0c0,1 -1,1 -1,1 -4,3 -13,14 -16,16 -2,-1 -5,-3 -6,-5l-4 -3c-1,-1 -1,0 -2,0 -1,1 -4,28 -6,34 -1,1 -1,2 -2,2 -1,0 -7,-10 -8,-12 0,0 0,0 -1,-1 -1,-2 -3,-7 -5,-8 -2,3 -3,12 -5,13 -1,0 -1,0 -3,-1 0,-1 -1,-1 -2,-2 -1,-1 -3,-2 -4,-3 -3,-1 -9,-5 -9,0 0,6 5,16 4,19 -3,0 -9,-2 -11,-1l0 1c2,5 15,19 20,25 2,2 4,3 2,5 -1,1 -4,2 -5,3 -2,1 -5,2 -6,3 2,2 14,3 18,4 5,1 13,3 18,4l-7 20c0,2 0,3 2,4l1 1c2,-1 3,-1 4,-3l6 -19c3,0 5,1 8,2 1,17 3,33 7,49 -1,3 -2,9 -4,9 0,1 -1,0 -2,0 -1,-1 -2,-1 -2,-2 -2,-1 -3,-2 -5,-3 -2,-1 -8,-6 -8,0 0,5 4,16 3,19 -3,0 -9,-2 -11,-1l0 1c3,5 16,19 21,24 2,3 3,4 2,6 -1,1 -5,2 -6,2 -2,1 -4,3 -5,4 2,2 14,3 17,4 5,1 13,2 18,4l-6 19c-1,3 0,3 1,5l2 1c2,-1 3,-1 4,-3l6 -20c3,1 8,3 13,5 5,7 10,13 16,19 7,7 14,13 22,19 -1,1 -2,1 -2,2 -2,-1 -5,-3 -6,-5l-4 -3c-1,-1 -1,-1 -2,0 -1,1 -4,28 -6,34 -1,1 -1,1 -2,2 -1,0 -7,-10 -8,-12 0,-1 0,-1 -1,-1 -1,-2 -3,-7 -5,-8 -2,3 -4,12 -5,13 -1,0 -1,0 -3,-1 -1,-1 -1,-1 -2,-2 -2,-1 -3,-2 -4,-3 -3,-1 -9,-5 -9,0 0,6 5,16 4,19 -3,0 -9,-2 -11,-1l0 1c2,5 15,19 20,25 2,2 4,3 2,5 -1,1 -4,2 -5,3 -2,0 -5,2 -6,3 2,2 14,3 18,4 5,1 13,2 18,4l-7 19c0,3 0,4 2,5l1 1c2,-1 3,-1 4,-3l6 -19c5,1 13,4 18,7 3,1 13,7 16,7 0,-3 -5,-9 -5,-12 -1,-2 1,-2 5,-3 7,-1 25,-5 31,-7l0 -1c-1,-2 -7,-4 -9,-6 0,-3 10,-9 14,-13 3,-5 -5,-4 -7,-5 -2,0 -4,0 -6,0 -1,0 -4,0 -5,-1 -1,-2 4,-10 4,-13 -2,0 -5,1 -7,2l-4 2c-1,0 -1,0 -2,0 -1,1 -10,5 -11,4 -1,-1 0,-4 1,-5 1,-3 6,-12 9,-19 29,16 62,23 97,23l3 0c-2,6 -4,28 -6,33 -1,1 -1,1 -2,2 -1,0 -7,-10 -8,-12 0,0 0,0 -1,-1 -1,-2 -3,-7 -5,-8 -2,3 -3,12 -5,13 -1,0 -1,0 -3,-1 0,-1 -1,-1 -2,-2 -1,-1 -3,-2 -4,-3 -3,-1 -9,-5 -9,0 0,6 5,16 4,19 -3,0 -9,-2 -11,-1l0 1c2,5 15,19 20,25 2,2 4,3 2,5 -1,1 -4,2 -5,3 -2,1 -5,2 -6,3 2,2 14,3 18,4 5,1 13,3 18,4l-7 20c0,2 0,3 2,4l1 1c2,-1 3,-1 4,-3l6 -19c5,1 13,4 18,7 3,1 13,7 16,7 0,-3 -5,-9 -5,-12 -1,-2 1,-2 5,-2 7,-2 25,-6 31,-8l0 -1c-1,-2 -7,-4 -9,-6 1,-3 10,-9 14,-13 3,-4 -5,-4 -7,-5 -2,0 -4,0 -6,0 -1,0 -4,0 -5,-1 -1,-2 4,-10 4,-13 -2,0 -5,1 -7,2l-4 2c-1,0 -1,0 -1,1 -2,0 -11,4 -12,3 -1,-1 0,-4 1,-5 2,-5 14,-27 14,-29 -1,0 0,0 -1,0 -2,-1 -11,1 -13,0 -1,-2 -2,-9 -2,-12l0 -2 35 0c4,1 11,2 14,3 5,1 14,3 18,4l-6 20c-1,2 0,3 1,4l2 1c2,-1 3,-1 4,-3l6 -19c5,1 12,4 17,7 3,1 14,7 16,7 1,-3 -4,-9 -5,-12 0,-2 2,-2 5,-2 8,-2 26,-6 31,-8l1 -1c-1,0 -1,0 -1,-1l35 0c1,4 2,8 2,10 -4,0 -9,-2 -12,-1l0 1c3,5 16,19 21,25 2,2 3,4 2,5 -1,1 -4,2 -6,3 -2,1 -4,2 -5,3 2,2 14,3 17,4 5,1 14,3 18,5l-6 19c-1,2 0,3 1,4l2 1c2,-1 3,0 4,-3l6 -19c5,1 13,5 17,7 4,1 14,7 16,7 1,-2 -4,-9 -5,-12 0,-2 2,-2 5,-2 8,-2 26,-5 31,-8l1 -1c-2,-2 -7,-4 -10,-6 1,-3 11,-8 14,-13 3,-4 -4,-4 -7,-4 -2,-1 -3,-1 -5,-1 -1,0 -5,0 -5,-1 -1,-2 4,-9 3,-13 -1,0 -5,2 -6,2l-4 2c-1,0 -1,0 -2,1 -1,0 -10,5 -12,3 0,-1 1,-4 1,-5 1,-2 4,-7 7,-13l52 0c-1,3 0,3 1,5l2 0c1,0 2,0 3,-3l1 -2 67 0 0 12c-4,4 -10,11 -12,12 -1,-1 -4,-3 -5,-4l-4 -4c-1,0 -2,0 -2,0 -1,1 -4,28 -7,34 0,1 0,2 -1,2 -2,0 -7,-10 -8,-12 -1,0 -1,0 -1,-1 -1,-2 -4,-7 -6,-7 -2,2 -3,11 -4,12 -1,0 -2,0 -3,-1 -1,0 -2,-1 -2,-1 -2,-1 -3,-2 -5,-3 -2,-2 -8,-6 -8,-1 0,6 5,16 4,19 -4,0 -9,-2 -12,-1l0 1c3,5 16,19 21,25 2,2 3,4 2,5 -1,1 -4,2 -6,3 -1,1 -4,2 -5,3 2,2 14,3 17,4 5,1 14,3 18,5l-6 19c-1,3 0,3 1,4l2 1c2,-1 3,0 4,-3l6 -19c5,1 13,5 17,7 1,0 3,1 5,3l0 53c0,-1 -1,-2 -1,-2 0,-1 0,-1 -1,-2 -1,-2 -3,-7 -5,-7 -2,2 -3,11 -5,12 -1,0 -1,0 -3,-1 0,0 -1,-1 -2,-1 -1,-1 -3,-2 -4,-3 -3,-2 -8,-6 -8,-1 0,6 4,16 3,19 -3,0 -9,-2 -11,0l0 0c2,5 15,19 20,25 1,1 2,2 2,2l-43 0c0,-1 0,-2 -1,-3l0 0c-1,1 -1,1 -2,1 0,1 -1,1 -2,2l-112 0 0 0c0,0 -1,0 -2,0l-19 0c3,-8 12,-25 12,-26 0,0 1,0 -1,0 -1,-1 -10,1 -13,0 -1,-2 -1,-9 -1,-12 -1,-5 -1,-8 -3,-12l0 0c-1,1 -1,1 -2,1 -4,3 -13,14 -16,16 -1,-1 -4,-3 -5,-5l-4 -3c-2,-1 -2,-1 -2,0 -1,1 -5,28 -7,34 0,1 0,1 -1,2 -2,0 -8,-10 -8,-12 -1,-1 -1,-1 -1,-1 -1,-2 -4,-7 -6,-8 -2,3 -3,12 -5,13 0,0 -1,0 -2,-1 -1,-1 -2,-1 -2,-2 -2,-1 -3,-2 -5,-3 -2,-1 -8,-5 -8,0 0,6 4,16 3,19 -3,0 -9,-2 -11,-1l0 1 0 0 -60 0c1,0 2,0 4,-1 7,-1 26,-5 31,-7l0 -1c-1,-2 -6,-4 -9,-6 1,-3 11,-9 14,-13 3,-5 -4,-5 -7,-5 -2,0 -4,0 -5,0 -1,0 -5,0 -5,-1 -1,-2 4,-10 3,-13 -2,0 -5,1 -6,2l-5 2c0,0 0,0 -1,0 -1,1 -11,5 -12,4 -1,-1 1,-4 1,-5 3,-5 14,-28 14,-29 0,0 1,0 -1,0 -1,-1 -11,0 -13,0 -1,-2 -1,-9 -2,-12 0,-5 0,-8 -2,-12l0 0c-1,0 -1,1 -2,1 -4,3 -13,14 -16,16 -1,-1 -4,-4 -5,-5l-4 -3c-2,-1 -2,-1 -2,0 -1,1 -5,28 -7,34 0,1 0,1 -1,2 -2,0 -8,-10 -9,-12 0,-1 0,-1 0,-1 -2,-2 -4,-7 -6,-8 -2,2 -3,12 -5,12 0,1 -1,0 -2,0 -1,-1 -2,-1 -2,-2 -2,-1 -3,-2 -5,-3 -2,-1 -8,-6 -8,0 0,5 4,16 3,19 -3,0 -9,-2 -11,-1l0 1c3,5 16,19 20,24 3,3 4,4 3,6 -2,1 -5,2 -6,2 -2,1 -4,3 -5,4 2,2 14,3 17,4 5,1 13,2 18,4l-1 3 -36 0zm-100 -736l-1 1c3,5 16,19 21,25 2,2 4,4 2,5 -1,1 -4,2 -6,3 -1,1 -4,2 -5,3 2,2 14,3 17,4 5,1 14,3 19,5l-7 19c-1,3 0,3 1,4l2 1c2,-1 3,0 4,-3l6 -19c5,1 13,5 17,7 4,1 14,8 16,7 1,-2 -4,-9 -5,-11 0,-2 2,-3 5,-3 8,-2 26,-5 32,-8l0 -1c-1,-2 -7,-4 -10,-6 1,-3 11,-8 14,-13 3,-4 -4,-4 -7,-4 -1,-1 -3,-1 -5,-1 -1,0 -4,1 -5,-1 -1,-1 4,-9 3,-12 -1,-1 -4,1 -6,1l-4 2c-1,0 -1,0 -2,1 -1,0 -10,5 -12,3 0,-1 1,-4 2,-5 2,-5 14,-27 13,-28 0,-1 1,-1 0,-1 -2,-1 -11,1 -13,0 -1,-2 -2,-9 -2,-12 -1,-4 -1,-7 -3,-11l0 0c-1,0 -1,0 -1,0 -5,3 -14,14 -17,16 -1,-1 -4,-3 -5,-4l-4 -4c-1,0 -2,0 -2,0 -1,1 -4,28 -7,34 0,1 0,2 -1,2 -2,1 -7,-10 -8,-12 -1,0 -1,0 -1,-1 -1,-2 -4,-7 -6,-7 -2,2 -3,11 -4,12 -1,0 -2,0 -3,-1 -1,0 -1,-1 -2,-1 -2,-1 -3,-2 -5,-3 -2,-2 -8,-6 -8,-1 0,6 5,16 4,19 -3,0 -9,-2 -11,-1zm-232 64c2,-2 4,-4 5,-7 2,2 3,3 1,4 -1,1 -4,2 -5,3l-1 0zm23 87l0 1c3,5 16,19 21,25 2,2 3,3 2,5 -1,1 -4,2 -6,3 -2,0 -4,2 -5,3 2,2 14,3 17,4 5,1 14,2 18,4l-6 19c-1,3 0,4 1,5l2 1c2,-1 3,-1 4,-3l6 -19c5,1 12,4 17,7 3,1 14,7 16,7 1,-3 -4,-9 -5,-12 0,-2 2,-2 5,-3 8,-1 26,-5 31,-7l1 -1c-2,-2 -7,-4 -10,-6 1,-3 11,-9 14,-13 3,-5 -4,-4 -7,-5 -2,0 -3,0 -5,0 -1,0 -5,0 -5,-1 -1,-2 4,-10 3,-13 -1,0 -5,1 -6,2l-4 2c-1,0 -1,0 -2,0 -1,1 -10,5 -12,4 0,-1 1,-4 1,-5 3,-5 15,-28 14,-29 0,0 1,0 -1,0 -1,-1 -10,1 -13,0 -1,-2 -1,-9 -1,-12 -1,-5 -1,-8 -3,-12l0 0c-1,1 -1,1 -2,1 -4,3 -13,14 -16,16 -1,-1 -4,-3 -5,-5l-4 -3c-2,-1 -2,0 -2,0 -1,1 -5,28 -7,34 0,1 0,1 -1,2 -2,0 -8,-10 -8,-12 -1,-1 -1,-1 -1,-1 -1,-2 -4,-7 -6,-8 -2,3 -3,12 -5,13 0,0 -1,0 -2,-1 -1,-1 -2,-1 -2,-2 -2,-1 -3,-2 -5,-3 -2,-1 -8,-5 -8,0 0,6 4,16 3,19 -3,0 -8,-2 -11,-1zm104 -74l0 1c2,5 15,19 20,25 2,2 4,4 2,5 -1,1 -4,2 -5,3 -2,1 -5,2 -5,3 1,2 13,3 17,4 5,1 13,3 18,5l-6 19c-1,3 -1,3 1,4l1 1c2,-1 3,0 4,-3l6 -19c6,1 13,5 18,7 3,1 13,7 16,7 0,-2 -5,-9 -5,-11 -1,-2 1,-3 5,-3 7,-2 26,-5 31,-8l0 -1c-1,-2 -7,-4 -9,-6 1,-3 11,-8 14,-13 3,-4 -5,-4 -7,-4 -2,-1 -4,-1 -6,-1 -1,0 -4,1 -5,-1 0,-1 4,-9 4,-12 -2,-1 -5,1 -6,1l-5 2c0,0 -1,0 -1,1 -2,0 -11,5 -12,3 -1,-1 0,-4 1,-5 2,-5 14,-27 14,-28 -1,-1 0,-1 -1,-1 -2,-1 -11,1 -13,0 -1,-2 -2,-9 -2,-12 0,-4 -1,-7 -2,-11l-1 0c0,0 -1,0 -1,0 -4,3 -13,14 -16,16 -2,-1 -4,-3 -6,-4l-4 -4c-1,0 -1,0 -1,0 -2,1 -5,28 -7,34 -1,1 -1,2 -1,2 -2,1 -8,-10 -9,-12 0,0 0,0 -1,-1 -1,-2 -3,-7 -5,-7 -2,2 -3,11 -5,12 -1,0 -1,0 -3,-1 0,0 -1,-1 -2,-1 -1,-1 -3,-2 -4,-3 -3,-2 -8,-6 -8,-1 0,6 4,16 3,19 -3,0 -9,-2 -11,-1zm333 32l-37 0 5 -14c5,1 13,5 17,7 3,1 11,6 15,7zm18 -135l0 0c3,6 15,20 20,25 3,3 4,4 3,5 -2,1 -5,3 -6,3 -2,1 -5,2 -5,4 2,2 13,3 17,3 5,1 13,3 18,5l-6 19c-1,3 0,3 1,5l2 0c2,0 2,0 3,-3l7 -19c5,2 12,5 17,7 3,2 13,8 16,7 1,-2 -4,-8 -5,-11 0,-2 2,-2 5,-3 7,-2 26,-5 31,-8l0 0c-1,-2 -7,-4 -9,-6 1,-3 11,-9 14,-14 3,-4 -4,-4 -7,-4 -2,0 -4,0 -5,0 -2,0 -5,0 -5,-1 -1,-2 3,-10 3,-13 -2,-1 -5,1 -6,2l-5 2c0,0 -1,0 -1,0 -1,1 -11,5 -12,4 -1,-1 1,-4 1,-5 2,-6 14,-28 14,-29 0,-1 0,0 -1,-1 -1,0 -11,1 -13,1 -1,-2 -1,-9 -2,-12 0,-5 -1,-8 -2,-12l-1 0c0,0 0,0 -1,1 -4,3 -13,14 -16,15 -2,0 -4,-3 -6,-4l-3 -3c-2,-1 -2,-1 -2,-1 -2,1 -5,28 -7,35 0,1 -1,1 -1,1 -2,1 -8,-9 -9,-11 0,-1 0,-1 0,-1 -2,-3 -4,-7 -6,-8 -2,2 -3,11 -5,12 -1,1 -1,0 -2,-1 -1,0 -2,-1 -3,-1 -1,-1 -3,-2 -4,-3 -2,-2 -8,-6 -8,0 0,5 4,16 3,19 -3,0 -9,-2 -11,-1zm143 47l0 0c3,6 15,20 20,25 3,3 4,4 3,5 -2,2 -5,3 -6,3 -2,1 -5,2 -5,4 2,2 14,3 17,4 5,1 13,2 18,4l-6 19c-1,3 0,3 1,5l2 1c2,-1 2,-1 3,-4l7 -19c5,2 12,5 17,7 3,2 14,8 16,8 1,-3 -4,-9 -5,-12 0,-2 2,-2 5,-3 7,-1 26,-5 31,-8l0 0c-1,-2 -7,-4 -9,-6 1,-3 11,-9 14,-13 3,-5 -4,-5 -7,-5 -2,0 -4,0 -5,0 -1,0 -5,0 -5,-1 -1,-2 3,-10 3,-13 -2,0 -5,1 -6,2l-5 2c0,0 -1,0 -1,0 -1,1 -11,5 -12,4 -1,-1 1,-4 1,-5 2,-6 14,-28 14,-29 0,0 1,0 -1,-1 -1,0 -11,1 -13,1 -1,-2 -1,-9 -2,-12 0,-5 0,-8 -2,-12l-1 0c0,0 0,0 -1,1 -4,3 -13,14 -16,15 -2,0 -4,-3 -5,-4l-4 -3c-2,-1 -2,-1 -2,0 -2,1 -5,28 -7,34 0,1 -1,1 -1,1 -2,1 -8,-9 -9,-11 0,-1 0,-1 0,-1 -2,-2 -4,-7 -6,-8 -2,2 -3,11 -5,12 -1,1 -1,0 -2,-1 -1,0 -2,0 -3,-1 -1,-1 -2,-2 -4,-3 -2,-1 -8,-6 -8,0 0,5 4,16 3,19 -3,0 -9,-2 -11,-1zm48 -120l13 0 -1 1c-1,0 -1,0 -1,0 -2,1 -11,5 -12,4 -1,-1 0,-4 1,-5zm-745 327c1,-5 2,-9 3,-14 1,6 4,13 3,15 -2,0 -4,-1 -6,-1zm34 121l0 1c3,5 16,19 20,24 3,3 4,4 3,5 -2,2 -5,3 -6,3 -2,1 -5,3 -5,4 2,2 14,3 17,4 5,1 13,2 18,4l-6 19c-1,3 0,3 1,5l2 1c2,-1 3,-1 3,-4l7 -19c5,2 12,5 17,7 3,2 14,8 16,8 1,-3 -4,-9 -5,-12 0,-2 2,-2 5,-3 7,-1 26,-5 31,-8l0 0c-1,-2 -6,-4 -9,-6 1,-3 11,-9 14,-13 3,-5 -4,-5 -7,-5 -2,0 -4,0 -5,0 -1,0 -5,0 -5,-1 -1,-2 3,-10 3,-13 -2,0 -5,1 -6,2l-5 2c0,0 0,0 -1,0 -1,1 -11,5 -12,4 -1,-1 1,-4 1,-5 2,-5 14,-28 14,-29 0,0 1,0 -1,-1 -1,0 -11,1 -13,1 -1,-2 -1,-9 -2,-12 0,-5 0,-8 -2,-12l0 0c-1,0 -1,0 -2,1 -4,3 -13,14 -16,16 -1,-1 -4,-4 -5,-5l-4 -3c-2,-1 -2,-1 -2,0 -1,1 -5,28 -7,34 0,1 -1,1 -1,1 -2,1 -8,-9 -9,-11 0,-1 0,-1 0,-1 -2,-2 -4,-7 -6,-8 -2,2 -3,11 -5,12 0,1 -1,0 -2,0 -1,-1 -2,-1 -2,-2 -2,-1 -3,-2 -5,-3 -2,-1 -8,-6 -8,0 0,5 4,16 3,19 -3,0 -9,-2 -11,-1zm121 303c-8,-6 -16,-12 -23,-19 4,1 7,1 9,1 5,1 13,3 18,5l-4 13zm-82 -179l-1 1c3,5 16,19 21,24 2,3 4,4 2,6 -1,1 -4,2 -5,2 -2,1 -5,3 -6,4 2,2 14,3 17,4 6,1 14,2 19,4l-7 19c-1,3 0,3 1,5l2 1c2,-1 3,-1 4,-3l6 -20c5,2 13,5 18,8 3,1 13,7 16,7 0,-3 -5,-9 -5,-12 -1,-2 1,-2 4,-3 8,-1 26,-5 32,-7l0 -1c-1,-2 -7,-4 -9,-6 0,-3 10,-9 14,-13 3,-5 -5,-5 -8,-5 -1,0 -3,0 -5,0 -1,0 -4,0 -5,-1 -1,-2 4,-10 4,-13 -2,0 -5,1 -7,2l-4 2c-1,0 -1,0 -2,0 -1,1 -10,5 -11,4 -1,-1 0,-4 1,-5 2,-5 14,-28 13,-29 0,0 1,0 0,0 -2,-1 -11,0 -13,0 -1,-2 -2,-9 -2,-12 -1,-5 -1,-8 -3,-12l0 0c-1,0 -1,1 -1,1 -5,3 -14,14 -16,16 -2,-1 -5,-4 -6,-5l-4 -3c-1,-1 -1,-1 -2,0 -1,1 -4,28 -7,34 0,1 0,1 -1,2 -1,0 -7,-10 -8,-12 0,-1 0,-1 -1,-1 -1,-2 -4,-7 -5,-8 -3,2 -4,12 -5,12 -1,1 -2,0 -3,0 -1,-1 -1,-1 -2,-2 -2,-1 -3,-2 -4,-3 -3,-1 -9,-6 -9,0 0,5 5,16 4,19 -3,0 -9,-2 -11,-1zm574 55l6 0c0,1 0,2 -1,3 0,1 0,2 -1,2 -1,0 -3,-2 -4,-5zm-392 113l0 1c3,5 15,19 20,24 3,3 4,4 3,5 -2,2 -5,3 -6,3 -2,1 -5,2 -5,4 2,2 14,3 17,4 5,1 13,2 18,4l-6 19c-1,3 0,3 1,5l2 1c2,-1 3,-1 3,-4l7 -19c5,2 12,5 17,7 3,2 14,8 16,8 1,-3 -4,-9 -5,-12 0,-2 2,-2 5,-3 7,-1 26,-5 31,-8l0 0c-1,-2 -7,-4 -9,-6 1,-3 11,-9 14,-13 3,-5 -4,-5 -7,-5 -2,0 -4,0 -5,0 -1,0 -5,0 -5,-1 -1,-2 3,-10 3,-13 -2,0 -5,1 -6,2l-5 2c0,0 0,0 -1,0 -1,1 -11,5 -12,4 -1,-1 1,-4 1,-5 2,-5 14,-28 14,-29 0,0 1,0 -1,-1 -1,0 -11,1 -13,1 -1,-2 -1,-9 -2,-12 0,-5 0,-8 -2,-12l0 0c-1,0 -1,0 -2,1 -4,3 -13,14 -16,16 -2,-1 -4,-4 -5,-5l-4 -3c-2,-1 -2,-1 -2,0 -2,1 -5,28 -7,34 0,1 -1,1 -1,1 -2,1 -8,-9 -9,-11 0,-1 0,-1 0,-1 -2,-2 -4,-7 -6,-8 -2,2 -3,11 -5,12 0,1 -1,0 -2,0 -1,-1 -2,-1 -2,-2 -2,-1 -3,-2 -5,-3 -2,-1 -8,-6 -8,0 0,5 4,16 3,19 -3,0 -9,-2 -11,-1zm200 95l-3 0 0 -1c1,1 2,1 3,1zm-41 -208l15 0c-2,3 -5,6 -6,7 -2,-1 -5,-3 -6,-5l-3 -2zm88 86l0 1c2,5 15,19 20,25 2,2 4,4 2,5 -1,1 -4,2 -5,3 -2,1 -5,2 -6,3 2,2 14,3 18,4 5,1 13,3 18,5l-7 19c0,2 0,3 2,4l1 1c2,-1 3,0 4,-3l6 -19c5,1 13,5 18,7 3,1 13,7 16,7 0,-2 -5,-9 -5,-12 -1,-2 1,-2 5,-2 7,-2 25,-5 31,-8l0 -1c-1,-2 -7,-4 -9,-6 1,-3 10,-8 14,-13 3,-4 -5,-4 -7,-4 -2,-1 -4,-1 -6,-1 -1,0 -4,0 -5,-1 0,-2 4,-10 4,-13 -2,0 -5,2 -7,2l-4 2c-1,0 -1,0 -1,1 -2,0 -11,5 -12,3 -1,-1 0,-4 1,-5 2,-5 14,-27 14,-29 -1,0 0,0 -1,0 -2,-1 -11,1 -13,0 -1,-2 -2,-9 -2,-12 -1,-4 -1,-7 -2,-11l-1 -1c0,1 -1,1 -1,1 -4,3 -13,14 -16,16 -2,-1 -4,-3 -6,-4l-4 -4c-1,-1 -1,0 -2,0 -1,1 -4,28 -6,34 -1,1 -1,2 -2,2 -1,0 -7,-10 -8,-12 0,0 0,0 -1,-1 -1,-2 -3,-7 -5,-8 -2,3 -3,12 -5,13 -1,0 -1,0 -3,-1 0,-1 -1,-1 -2,-2 -1,-1 -3,-2 -4,-2 -3,-2 -9,-6 -9,-1 1,6 5,16 4,19 -3,0 -9,-2 -11,-1zm143 47l0 1c2,5 15,19 20,25 2,2 4,4 2,5 -1,1 -4,2 -5,3 -2,1 -5,2 -5,3 1,2 13,3 17,4 5,1 13,3 18,5l-6 19c-1,2 -1,3 1,4l1 1c2,-1 3,0 4,-3l6 -19c5,1 13,5 18,7 3,1 13,7 16,7 0,-2 -5,-9 -5,-12 -1,-1 1,-2 5,-2 7,-2 26,-5 31,-8l0 -1c-1,-2 -7,-4 -9,-6 1,-3 11,-8 14,-13 3,-4 -5,-4 -7,-4 -2,-1 -4,-1 -6,-1 -1,0 -4,0 -5,-1 0,-1 4,-9 4,-12 -2,-1 -5,1 -7,1l-4 2c0,0 -1,0 -1,1 -2,0 -11,5 -12,3 -1,-1 0,-4 1,-5 2,-5 14,-27 14,-28 -1,-1 0,-1 -1,-1 -2,-1 -11,1 -13,0 -1,-2 -2,-9 -2,-12 0,-4 -1,-7 -2,-11l-1 -1c0,1 -1,1 -1,1 -4,3 -13,14 -16,16 -2,-1 -4,-3 -6,-4l-4 -4c-1,0 -1,0 -1,0 -2,1 -5,28 -7,34 -1,1 -1,2 -2,2 -1,0 -7,-10 -8,-12 0,0 0,0 -1,-1 -1,-2 -3,-7 -5,-7 -2,2 -3,11 -5,12 -1,0 -1,0 -3,-1 0,0 -1,-1 -2,-1 -1,-1 -3,-2 -4,-3 -3,-2 -8,-6 -8,-1 0,6 4,16 3,19 -3,0 -9,-2 -11,-1z"/>
   </clipPath>
   <clipPath id="id1" style="clip-rule:nonzero">
    <path d="M835 417c0,76 -18,146 -55,210l-1 0 -361 0c-58,0 -107,-20 -148,-61l0 0c41,40 90,60 148,60 58,0 107,-20 148,-61 41,-40 61,-90 61,-148l0 -209 208 0 0 209zm-420 418c-22,0 -44,-2 -65,-5 21,3 43,5 65,5zm-293 -121c-25,-26 -48,-55 -66,-87 -26,-44 -43,-91 -51,-140 9,49 25,96 51,140 19,32 41,61 66,87zm-122 -297l0 -417 208 0 0 56c-64,37 -114,88 -152,152 -37,64 -56,134 -56,209z"/>
   </clipPath>
 </defs>
 <g id="Layer_x0020_1">
  <metadata id="CorelCorpID_0Corel-Layer"/>
  <path class="fil0" d="M418 835c-10,0 -20,0 -29,-1 -1,-2 -1,-5 -1,-7 -1,-5 -1,-8 -3,-12l0 0c-1,0 -1,1 -1,1 -5,3 -14,14 -16,16 -2,-1 -5,-4 -6,-5l-4 -3c-1,-1 -1,-1 -2,0 0,0 -1,3 -1,7 -35,-5 -68,-15 -100,-28 3,-6 6,-10 5,-11 0,0 1,0 0,-1 -2,0 -11,1 -13,1 -1,-2 -2,-9 -2,-12 -1,-5 -1,-8 -3,-12l0 0c-1,0 -1,0 -1,1 -5,3 -14,14 -17,15 -1,0 -4,-3 -5,-4l-4 -3c-1,-1 -1,-1 -2,0 0,0 -1,2 -1,5l-3 -2c-14,-8 -26,-16 -38,-25l5 -15c5,2 12,5 17,7 3,2 14,8 16,8 1,-3 -4,-9 -5,-12 0,-2 2,-2 5,-3 7,-1 26,-5 31,-8l0 0c-1,-2 -7,-4 -9,-6 1,-3 11,-9 14,-14 3,-4 -4,-4 -7,-4 -2,0 -4,0 -5,0 -1,0 -5,0 -5,-1 -1,-2 3,-10 3,-13 -2,-1 -5,1 -6,2l-5 2c0,0 -1,0 -1,0 -1,1 -11,5 -12,4 -1,-1 1,-4 1,-5 2,-6 14,-28 14,-29 0,0 1,0 -1,-1 -1,0 -11,1 -13,1 -1,-2 -1,-9 -2,-12 0,-5 0,-8 -2,-12l-1 0c0,0 0,0 -1,1 -4,3 -13,14 -16,15 -2,0 -4,-3 -5,-4l-4 -3c-2,-1 -2,-1 -2,-1 -2,1 -5,28 -7,35 0,1 -1,1 -1,1 -2,1 -8,-9 -9,-11 0,-1 0,-1 0,-1 -2,-2 -4,-7 -6,-8 -2,2 -3,11 -5,12 -1,1 -1,0 -2,-1 -1,0 -2,-1 -3,-1 -1,-1 -2,-2 -4,-3 -2,-1 -8,-6 -8,0 0,5 4,16 3,19 -3,0 -9,-2 -11,-1l0 0c3,6 15,20 20,25 3,3 4,4 3,5 -2,1 -5,3 -6,3 -1,1 -1,1 -2,1 -15,-13 -28,-27 -40,-42l0 0 0 0c0,-1 -2,-2 -3,-3 -2,-2 -3,-4 -4,-6 3,-3 9,-7 12,-11 3,-4 -4,-4 -7,-4 -2,0 -4,0 -5,0 -2,0 -5,0 -5,-1 -1,-2 3,-10 3,-13 -2,-1 -5,1 -6,2l-5 1c0,1 -1,1 -1,1 -1,0 -2,1 -4,2 -1,-3 -3,-5 -5,-8 4,-8 12,-23 12,-24 0,-1 0,0 -1,-1 -1,0 -11,1 -13,1 -1,-2 -1,-9 -2,-12 0,-5 -1,-8 -2,-12l-1 0c0,0 0,0 -1,1 -3,2 -8,8 -12,12 -7,-13 -13,-25 -18,-38 9,-2 24,-5 29,-8l0 0c-1,-2 -7,-4 -10,-6 1,-3 11,-9 14,-13 4,-5 -4,-5 -7,-5 -1,0 -3,0 -5,0 -1,0 -4,0 -5,-1 -1,-2 4,-10 4,-13 -2,0 -5,1 -7,2l-4 2c-1,0 -1,0 -2,0 -1,1 -10,5 -11,4 -1,-1 0,-4 1,-5 2,-5 14,-28 13,-29 0,0 1,0 0,-1 -2,0 -11,1 -13,1 -1,-2 -2,-9 -2,-12 -1,-5 -1,-8 -3,-12l0 0c-1,0 -1,0 -1,1 -4,2 -10,9 -14,13 -2,-14 -4,-29 -5,-45 7,-1 15,-3 18,-5l0 0c-1,-2 -7,-4 -9,-6 1,-3 11,-9 14,-14 3,-4 -4,-4 -7,-4 -2,0 -4,0 -5,0 -1,0 -5,0 -5,-1 -1,-2 3,-10 3,-13 -2,-1 -5,1 -6,2l-4 1c1,-24 4,-48 8,-72 5,7 13,15 17,20 2,2 4,3 2,5 -1,1 -4,2 -5,3 -2,0 -5,2 -6,3 2,2 14,3 18,4 5,1 13,2 18,4l-7 19c0,3 0,4 2,5l1 1c2,-1 3,-1 4,-3l6 -19c5,1 13,4 18,7 3,1 13,7 16,7 0,-3 -5,-9 -5,-12 -1,-2 1,-2 5,-3 7,-1 25,-5 31,-7l0 -1c-1,-2 -7,-4 -9,-6 0,-3 10,-9 14,-13 3,-5 -5,-4 -7,-5 -2,0 -4,0 -6,0 -1,0 -4,0 -5,-1 -1,-2 4,-10 4,-13 -2,0 -5,1 -7,2l-4 2c-1,0 -1,0 -1,0 -2,1 -11,5 -12,4 -1,-1 0,-4 1,-5 2,-5 14,-28 14,-29 -1,0 0,0 -1,0 -2,-1 -11,1 -13,0 -1,-2 -2,-9 -2,-12 -1,-5 -1,-8 -2,-12l-1 0c0,1 -1,1 -1,1 -4,3 -13,14 -16,16 -2,-1 -5,-3 -6,-5l-4 -3c-1,-1 -1,0 -2,0 -1,1 -4,28 -6,34 -1,1 -1,1 -2,2 -1,0 -7,-10 -8,-12 0,-1 0,-1 -1,-1 -1,-2 -3,-7 -5,-8 -2,3 -4,12 -5,13 -1,0 -1,0 -3,-1 -1,-1 -1,-1 -2,-2 -1,-1 -3,-2 -4,-3 -2,-1 -4,-2 -6,-3 4,-17 10,-34 17,-51 2,1 4,2 5,3 3,1 14,7 16,7 1,-3 -4,-9 -5,-12 0,-2 2,-2 5,-3 8,-1 26,-5 31,-7l0 -1c-1,-2 -6,-4 -9,-6 1,-3 11,-9 14,-13 3,-5 -4,-5 -7,-5 -2,0 -3,0 -5,0 -1,0 -5,0 -5,-1 -1,-2 4,-10 3,-13 -2,0 -5,1 -6,2l-4 2c-1,0 -1,0 -2,0 -1,1 -6,3 -9,4l2 -4c9,-14 18,-28 27,-41 4,1 13,2 16,3 5,1 13,3 18,5l-6 19c-1,2 -1,3 1,4l1 1c2,-1 3,0 4,-3l6 -19c5,1 13,5 18,7 3,1 13,7 16,7 0,-2 -5,-9 -5,-12 -1,-2 1,-2 5,-2 7,-2 26,-5 31,-8l0 -1c-1,-2 -7,-4 -9,-6 1,-3 11,-8 14,-13 3,-4 -5,-4 -7,-4 -2,-1 -4,-1 -6,-1 -1,0 -4,0 -5,-1 0,-2 4,-9 4,-13 -2,0 -5,2 -7,2l-4 2c0,0 -1,0 -1,1 -2,0 -11,5 -12,3 -1,-1 0,-4 1,-5 2,-5 14,-27 14,-29 -1,0 0,0 -1,0 -2,-1 -11,1 -13,0 -1,-2 -2,-8 -2,-11 11,-8 22,-16 33,-24 3,3 6,7 8,9 2,2 3,4 2,5 -1,1 -4,2 -6,3 -1,1 -4,2 -5,3 2,2 14,3 17,4 5,1 14,3 18,5l-6 19c-1,2 0,3 1,4l2 1c2,-1 3,0 4,-3l6 -19c5,1 13,5 17,7 4,1 14,7 16,7 1,-2 -4,-9 -5,-12 0,-2 2,-2 5,-2 8,-2 26,-5 31,-8l1 -1c-1,-2 -7,-4 -10,-6 1,-3 11,-8 14,-13 3,-4 -4,-4 -7,-4 -2,-1 -3,-1 -5,-1 -1,0 -4,0 -5,-1 -1,-2 4,-9 3,-13 -1,0 -5,2 -6,2l-4 2c-1,0 -1,0 -2,1 -1,0 -10,5 -12,3 0,-1 1,-4 1,-5 3,-5 15,-27 14,-29 0,0 1,0 -1,0 0,0 -2,0 -4,0 9,-3 18,-7 27,-9 4,0 9,1 11,1 5,1 13,3 18,5l-6 19c-1,3 0,3 1,5l2 0c2,0 2,0 3,-3l7 -19c5,1 12,5 17,7 3,2 13,8 16,7 0,-2 -4,-8 -5,-11 0,-2 2,-2 5,-3 7,-2 26,-5 31,-8l0 0c-1,-3 -7,-5 -9,-6 1,-3 8,-8 12,-12 6,0 13,0 19,0l53 0c-2,8 -3,16 -4,20 -1,1 -1,1 -1,1 -2,1 -8,-10 -9,-11 0,-1 0,-1 0,-2 -2,-2 -4,-6 -6,-7 -2,2 -3,11 -5,12 -1,1 -1,0 -2,-1 -1,0 -2,-1 -3,-1 -1,-1 -3,-2 -4,-3 -3,-2 -8,-6 -8,0 0,5 4,16 3,18 -3,1 -9,-1 -11,0l0 0c3,6 15,19 20,25 2,3 4,4 3,5 -2,1 -5,2 -6,3 -2,1 -5,2 -5,4 2,1 13,3 17,3 5,1 13,3 18,5l-6 19c-1,3 0,3 1,5l2 0c2,0 2,0 3,-3l7 -19c5,1 12,5 17,7 3,2 13,8 16,7 1,-2 -4,-8 -5,-11 0,-2 2,-2 5,-3 7,-2 26,-5 31,-8l0 0c-1,-2 -7,-4 -9,-6 1,-3 11,-9 14,-14 3,-4 -4,-4 -7,-4 -2,0 -4,0 -5,0 -2,0 -5,0 -5,-1 -1,-2 3,-10 3,-13 -2,-1 -5,1 -6,1l-5 2c0,1 -1,1 -1,1 -1,1 -11,5 -12,3 -1,-1 1,-3 1,-4 2,-6 14,-28 14,-29 0,-1 0,0 -1,-1 -2,0 -11,1 -13,1l0 -1 64 0 -5 13c0,3 0,3 2,5l1 0c2,0 3,0 4,-3l5 -15 12 0c2,1 5,2 7,3 3,2 13,8 16,7 0,-2 -4,-7 -5,-10l63 0c5,6 14,17 18,21 2,3 4,4 2,5 -1,1 -4,3 -5,3 -2,1 -5,2 -6,4 2,2 14,3 18,3 5,1 13,3 18,5l-7 19c0,3 0,3 2,5l1 0c2,0 3,0 4,-3l6 -19c5,2 13,5 18,7 3,2 13,8 16,7 0,-2 -5,-8 -5,-11 -1,-2 1,-2 5,-3 7,-2 25,-5 31,-8l0 0c-1,-2 -7,-4 -9,-6 0,-3 10,-9 14,-14 3,-4 -5,-4 -7,-4 -2,0 -4,0 -6,0 -1,0 -4,0 -5,-1 0,-2 2,-6 3,-10l58 0 0 30 -1 -1c0,0 -1,0 -2,-1 -1,-1 -3,-2 -4,-3 -3,-1 -9,-6 -9,0 0,5 5,16 4,19 -3,0 -9,-2 -11,-1l0 0c2,6 15,20 20,25 2,3 4,4 2,5 -1,2 -4,3 -5,3 -2,1 -5,2 -6,4 2,1 8,2 12,3l0 125 -4 0 0 -4c-1,-5 -1,-8 -3,-12l0 0c-1,0 -1,0 -1,1 -4,2 -13,13 -16,15l-1 0c-2,-1 -4,-3 -5,-4l-4 -3c-1,-1 -1,-1 -2,-1 0,1 -1,4 -2,8l-87 0c-1,0 -1,0 -1,0 -1,-2 4,-10 4,-13 -2,-1 -5,1 -7,1l-4 2c-1,1 -1,1 -2,1 -1,0 -10,5 -11,3 -1,-1 0,-3 1,-4 2,-6 14,-28 13,-29 0,-1 1,0 0,-1 -2,0 -11,1 -13,0 -1,-2 -2,-9 -2,-11 -1,-5 -1,-8 -3,-12l0 0c-1,0 -1,0 -1,0 -5,3 -14,15 -16,16 -2,0 -5,-3 -6,-4l-4 -3c-1,-1 -1,-1 -2,-1 -1,1 -4,28 -7,35 0,1 0,1 -1,1 -1,1 -7,-10 -8,-11 -1,-1 -1,-1 -1,-2 -1,-2 -4,-7 -5,-7 -3,2 -4,11 -5,12 -1,0 -2,0 -3,-1 -1,0 -1,-1 -2,-1 -2,-1 -3,-2 -5,-3 -2,-2 -8,-6 -8,0 0,5 5,15 4,18 -3,0 -9,-1 -11,0l-1 0c2,3 6,9 11,14l-67 0c1,-2 -4,-9 -4,-11 -1,-2 1,-2 4,-3 8,-2 26,-5 32,-8l0 -1c-1,-2 -7,-4 -10,-6 1,-3 11,-8 14,-13 3,-4 -4,-4 -7,-4 -1,0 -3,0 -5,-1 -1,0 -4,1 -5,-1 -1,-1 4,-9 3,-12 -1,-1 -4,1 -6,1l-4 2c-1,0 -1,1 -2,1 -1,0 -10,5 -11,3 -1,-1 0,-3 1,-4 2,-6 14,-28 13,-29 0,-1 1,-1 0,-1 -2,0 -11,1 -13,0 -1,-2 -2,-9 -2,-12 -1,-4 -1,-7 -3,-11l0 0c-1,0 -1,0 -1,0 -5,3 -14,15 -17,16 -1,-1 -4,-3 -5,-4l-4 -3c-1,-1 -1,-1 -2,-1 -1,1 -4,28 -7,34 0,2 0,2 -1,2 -1,1 -7,-10 -8,-11 -1,-1 -1,-1 -1,-2 -1,-2 -4,-7 -5,-7 -3,2 -4,11 -5,12 -1,0 -2,0 -3,-1 -1,0 -1,-1 -2,-1 -2,-1 -3,-2 -5,-3 -2,-2 -8,-6 -8,-1 0,6 5,16 4,19 -3,0 -9,-1 -11,0l-1 0c3,5 16,19 21,25 2,2 4,4 2,5 -1,1 -4,2 -6,3 -1,1 -4,2 -5,3 2,2 14,4 17,4 6,1 14,3 19,5l-6 16 -50 0c2,-5 4,-9 4,-9 0,-1 0,-1 -1,-1 -2,0 -11,1 -13,0 -1,-2 -2,-9 -2,-12 0,-4 -1,-7 -2,-11l-1 0c0,0 -1,0 -1,0 -4,3 -13,15 -16,16 -2,-1 -4,-3 -6,-4l-4 -3c-1,-1 -1,-1 -1,-1 -1,1 -3,15 -5,25 -4,1 -7,1 -11,1 0,0 -1,-1 -1,-1 0,-1 0,-1 -1,-2 -1,-2 -3,-7 -5,-7 -2,2 -3,11 -5,12l0 0 -1 0c0,0 -1,0 -2,-1 0,0 -1,-1 -2,-1 -1,-1 -3,-2 -4,-3 -3,-2 -8,-6 -8,-1 0,3 0,6 1,9 -36,9 -67,28 -95,56 -2,2 -5,4 -7,7 -2,-1 -3,-1 -3,2 0,0 0,1 0,1 -12,14 -22,29 -30,46l0 -1 -1 0c0,1 -1,1 -1,1 -4,3 -13,14 -16,16 -2,-1 -5,-3 -6,-5l-4 -3c-1,-1 -1,0 -2,0 -1,1 -4,28 -6,34 -1,1 -1,2 -2,2 -1,0 -7,-10 -8,-12 0,0 0,0 -1,-1 -1,-2 -3,-7 -5,-8 -2,3 -3,12 -5,13 -1,0 -1,0 -3,-1 0,-1 -1,-1 -2,-2 -1,-1 -3,-2 -4,-3 -3,-1 -9,-5 -9,0 0,6 5,16 4,19 -3,0 -9,-2 -11,-1l0 1c2,5 15,19 20,25 2,2 4,3 2,5 -1,1 -4,2 -5,3 -2,1 -5,2 -6,3 2,2 14,3 18,4 5,1 13,3 18,4l-7 20c0,2 0,3 2,4l1 1c2,-1 3,-1 4,-3l6 -19c3,0 5,1 8,2 1,17 3,33 7,49 -1,3 -2,9 -4,9 0,1 -1,0 -2,0 -1,-1 -2,-1 -2,-2 -2,-1 -3,-2 -5,-3 -2,-1 -8,-6 -8,0 0,5 4,16 3,19 -3,0 -9,-2 -11,-1l0 1c3,5 16,19 21,24 2,3 3,4 2,6 -1,1 -5,2 -6,2 -2,1 -4,3 -5,4 2,2 14,3 17,4 5,1 13,2 18,4l-6 19c-1,3 0,3 1,5l2 1c2,-1 3,-1 4,-3l6 -20c3,1 8,3 13,5 5,7 10,13 16,19 7,7 14,13 22,19 -1,1 -2,1 -2,2 -2,-1 -5,-3 -6,-5l-4 -3c-1,-1 -1,-1 -2,0 -1,1 -4,28 -6,34 -1,1 -1,1 -2,2 -1,0 -7,-10 -8,-12 0,-1 0,-1 -1,-1 -1,-2 -3,-7 -5,-8 -2,3 -4,12 -5,13 -1,0 -1,0 -3,-1 -1,-1 -1,-1 -2,-2 -2,-1 -3,-2 -4,-3 -3,-1 -9,-5 -9,0 0,6 5,16 4,19 -3,0 -9,-2 -11,-1l0 1c2,5 15,19 20,25 2,2 4,3 2,5 -1,1 -4,2 -5,3 -2,0 -5,2 -6,3 2,2 14,3 18,4 5,1 13,2 18,4l-7 19c0,3 0,4 2,5l1 1c2,-1 3,-1 4,-3l6 -19c5,1 13,4 18,7 3,1 13,7 16,7 0,-3 -5,-9 -5,-12 -1,-2 1,-2 5,-3 7,-1 25,-5 31,-7l0 -1c-1,-2 -7,-4 -9,-6 0,-3 10,-9 14,-13 3,-5 -5,-4 -7,-5 -2,0 -4,0 -6,0 -1,0 -4,0 -5,-1 -1,-2 4,-10 4,-13 -2,0 -5,1 -7,2l-4 2c-1,0 -1,0 -2,0 -1,1 -10,5 -11,4 -1,-1 0,-4 1,-5 1,-3 6,-12 9,-19 29,16 62,23 97,23l3 0c-2,6 -4,28 -6,33 -1,1 -1,1 -2,2 -1,0 -7,-10 -8,-12 0,0 0,0 -1,-1 -1,-2 -3,-7 -5,-8 -2,3 -3,12 -5,13 -1,0 -1,0 -3,-1 0,-1 -1,-1 -2,-2 -1,-1 -3,-2 -4,-3 -3,-1 -9,-5 -9,0 0,6 5,16 4,19 -3,0 -9,-2 -11,-1l0 1c2,5 15,19 20,25 2,2 4,3 2,5 -1,1 -4,2 -5,3 -2,1 -5,2 -6,3 2,2 14,3 18,4 5,1 13,3 18,4l-7 20c0,2 0,3 2,4l1 1c2,-1 3,-1 4,-3l6 -19c5,1 13,4 18,7 3,1 13,7 16,7 0,-3 -5,-9 -5,-12 -1,-2 1,-2 5,-2 7,-2 25,-6 31,-8l0 -1c-1,-2 -7,-4 -9,-6 1,-3 10,-9 14,-13 3,-4 -5,-4 -7,-5 -2,0 -4,0 -6,0 -1,0 -4,0 -5,-1 -1,-2 4,-10 4,-13 -2,0 -5,1 -7,2l-4 2c-1,0 -1,0 -1,1 -2,0 -11,4 -12,3 -1,-1 0,-4 1,-5 2,-5 14,-27 14,-29 -1,0 0,0 -1,0 -2,-1 -11,1 -13,0 -1,-2 -2,-9 -2,-12l0 -2 35 0c4,1 11,2 14,3 5,1 14,3 18,4l-6 20c-1,2 0,3 1,4l2 1c2,-1 3,-1 4,-3l6 -19c5,1 12,4 17,7 3,1 14,7 16,7 1,-3 -4,-9 -5,-12 0,-2 2,-2 5,-2 8,-2 26,-6 31,-8l1 -1c-1,0 -1,0 -1,-1l35 0c1,4 2,8 2,10 -4,0 -9,-2 -12,-1l0 1c3,5 16,19 21,25 2,2 3,4 2,5 -1,1 -4,2 -6,3 -2,1 -4,2 -5,3 2,2 14,3 17,4 5,1 14,3 18,5l-6 19c-1,2 0,3 1,4l2 1c2,-1 3,0 4,-3l6 -19c5,1 13,5 17,7 4,1 14,7 16,7 1,-2 -4,-9 -5,-12 0,-2 2,-2 5,-2 8,-2 26,-5 31,-8l1 -1c-2,-2 -7,-4 -10,-6 1,-3 11,-8 14,-13 3,-4 -4,-4 -7,-4 -2,-1 -3,-1 -5,-1 -1,0 -5,0 -5,-1 -1,-2 4,-9 3,-13 -1,0 -5,2 -6,2l-4 2c-1,0 -1,0 -2,1 -1,0 -10,5 -12,3 0,-1 1,-4 1,-5 1,-2 4,-7 7,-13l52 0c-1,3 0,3 1,5l2 0c1,0 2,0 3,-3l1 -2 67 0 0 12c-4,4 -10,11 -12,12 -1,-1 -4,-3 -5,-4l-4 -4c-1,0 -2,0 -2,0 -1,1 -4,28 -7,34 0,1 0,2 -1,2 -2,0 -7,-10 -8,-12 -1,0 -1,0 -1,-1 -1,-2 -4,-7 -6,-7 -2,2 -3,11 -4,12 -1,0 -2,0 -3,-1 -1,0 -2,-1 -2,-1 -2,-1 -3,-2 -5,-3 -2,-2 -8,-6 -8,-1 0,6 5,16 4,19 -4,0 -9,-2 -12,-1l0 1c3,5 16,19 21,25 2,2 3,4 2,5 -1,1 -4,2 -6,3 -1,1 -4,2 -5,3 2,2 14,3 17,4 5,1 14,3 18,5l-6 19c-1,3 0,3 1,4l2 1c2,-1 3,0 4,-3l6 -19c5,1 13,5 17,7 1,0 3,1 5,3l0 53c0,-1 -1,-2 -1,-2 0,-1 0,-1 -1,-2 -1,-2 -3,-7 -5,-7 -2,2 -3,11 -5,12 -1,0 -1,0 -3,-1 0,0 -1,-1 -2,-1 -1,-1 -3,-2 -4,-3 -3,-2 -8,-6 -8,-1 0,6 4,16 3,19 -3,0 -9,-2 -11,0l0 0c2,5 15,19 20,25 1,1 2,2 2,2l-43 0c0,-1 0,-2 -1,-3l0 0c-1,1 -1,1 -2,1 0,1 -1,1 -2,2l-112 0 0 0c0,0 -1,0 -2,0l-19 0c3,-8 12,-25 12,-26 0,0 1,0 -1,0 -1,-1 -10,1 -13,0 -1,-2 -1,-9 -1,-12 -1,-5 -1,-8 -3,-12l0 0c-1,1 -1,1 -2,1 -4,3 -13,14 -16,16 -1,-1 -4,-3 -5,-5l-4 -3c-2,-1 -2,-1 -2,0 -1,1 -5,28 -7,34 0,1 0,1 -1,2 -2,0 -8,-10 -8,-12 -1,-1 -1,-1 -1,-1 -1,-2 -4,-7 -6,-8 -2,3 -3,12 -5,13 0,0 -1,0 -2,-1 -1,-1 -2,-1 -2,-2 -2,-1 -3,-2 -5,-3 -2,-1 -8,-5 -8,0 0,6 4,16 3,19 -3,0 -9,-2 -11,-1l0 1 0 0 -60 0c1,0 2,0 4,-1 7,-1 26,-5 31,-7l0 -1c-1,-2 -6,-4 -9,-6 1,-3 11,-9 14,-13 3,-5 -4,-5 -7,-5 -2,0 -4,0 -5,0 -1,0 -5,0 -5,-1 -1,-2 4,-10 3,-13 -2,0 -5,1 -6,2l-5 2c0,0 0,0 -1,0 -1,1 -11,5 -12,4 -1,-1 1,-4 1,-5 3,-5 14,-28 14,-29 0,0 1,0 -1,0 -1,-1 -11,0 -13,0 -1,-2 -1,-9 -2,-12 0,-5 0,-8 -2,-12l0 0c-1,0 -1,1 -2,1 -4,3 -13,14 -16,16 -1,-1 -4,-4 -5,-5l-4 -3c-2,-1 -2,-1 -2,0 -1,1 -5,28 -7,34 0,1 0,1 -1,2 -2,0 -8,-10 -9,-12 0,-1 0,-1 0,-1 -2,-2 -4,-7 -6,-8 -2,2 -3,12 -5,12 0,1 -1,0 -2,0 -1,-1 -2,-1 -2,-2 -2,-1 -3,-2 -5,-3 -2,-1 -8,-6 -8,0 0,5 4,16 3,19 -3,0 -9,-2 -11,-1l0 1c3,5 16,19 20,24 3,3 4,4 3,6 -2,1 -5,2 -6,2 -2,1 -4,3 -5,4 2,2 14,3 17,4 5,1 13,2 18,4l-1 3 -36 0zm-100 -736l-1 1c3,5 16,19 21,25 2,2 4,4 2,5 -1,1 -4,2 -6,3 -1,1 -4,2 -5,3 2,2 14,3 17,4 5,1 14,3 19,5l-7 19c-1,3 0,3 1,4l2 1c2,-1 3,0 4,-3l6 -19c5,1 13,5 17,7 4,1 14,8 16,7 1,-2 -4,-9 -5,-11 0,-2 2,-3 5,-3 8,-2 26,-5 32,-8l0 -1c-1,-2 -7,-4 -10,-6 1,-3 11,-8 14,-13 3,-4 -4,-4 -7,-4 -1,-1 -3,-1 -5,-1 -1,0 -4,1 -5,-1 -1,-1 4,-9 3,-12 -1,-1 -4,1 -6,1l-4 2c-1,0 -1,0 -2,1 -1,0 -10,5 -12,3 0,-1 1,-4 2,-5 2,-5 14,-27 13,-28 0,-1 1,-1 0,-1 -2,-1 -11,1 -13,0 -1,-2 -2,-9 -2,-12 -1,-4 -1,-7 -3,-11l0 0c-1,0 -1,0 -1,0 -5,3 -14,14 -17,16 -1,-1 -4,-3 -5,-4l-4 -4c-1,0 -2,0 -2,0 -1,1 -4,28 -7,34 0,1 0,2 -1,2 -2,1 -7,-10 -8,-12 -1,0 -1,0 -1,-1 -1,-2 -4,-7 -6,-7 -2,2 -3,11 -4,12 -1,0 -2,0 -3,-1 -1,0 -1,-1 -2,-1 -2,-1 -3,-2 -5,-3 -2,-2 -8,-6 -8,-1 0,6 5,16 4,19 -3,0 -9,-2 -11,-1zm-232 64c2,-2 4,-4 5,-7 2,2 3,3 1,4 -1,1 -4,2 -5,3l-1 0zm23 87l0 1c3,5 16,19 21,25 2,2 3,3 2,5 -1,1 -4,2 -6,3 -2,0 -4,2 -5,3 2,2 14,3 17,4 5,1 14,2 18,4l-6 19c-1,3 0,4 1,5l2 1c2,-1 3,-1 4,-3l6 -19c5,1 12,4 17,7 3,1 14,7 16,7 1,-3 -4,-9 -5,-12 0,-2 2,-2 5,-3 8,-1 26,-5 31,-7l1 -1c-2,-2 -7,-4 -10,-6 1,-3 11,-9 14,-13 3,-5 -4,-4 -7,-5 -2,0 -3,0 -5,0 -1,0 -5,0 -5,-1 -1,-2 4,-10 3,-13 -1,0 -5,1 -6,2l-4 2c-1,0 -1,0 -2,0 -1,1 -10,5 -12,4 0,-1 1,-4 1,-5 3,-5 15,-28 14,-29 0,0 1,0 -1,0 -1,-1 -10,1 -13,0 -1,-2 -1,-9 -1,-12 -1,-5 -1,-8 -3,-12l0 0c-1,1 -1,1 -2,1 -4,3 -13,14 -16,16 -1,-1 -4,-3 -5,-5l-4 -3c-2,-1 -2,0 -2,0 -1,1 -5,28 -7,34 0,1 0,1 -1,2 -2,0 -8,-10 -8,-12 -1,-1 -1,-1 -1,-1 -1,-2 -4,-7 -6,-8 -2,3 -3,12 -5,13 0,0 -1,0 -2,-1 -1,-1 -2,-1 -2,-2 -2,-1 -3,-2 -5,-3 -2,-1 -8,-5 -8,0 0,6 4,16 3,19 -3,0 -8,-2 -11,-1zm104 -74l0 1c2,5 15,19 20,25 2,2 4,4 2,5 -1,1 -4,2 -5,3 -2,1 -5,2 -5,3 1,2 13,3 17,4 5,1 13,3 18,5l-6 19c-1,3 -1,3 1,4l1 1c2,-1 3,0 4,-3l6 -19c6,1 13,5 18,7 3,1 13,7 16,7 0,-2 -5,-9 -5,-11 -1,-2 1,-3 5,-3 7,-2 26,-5 31,-8l0 -1c-1,-2 -7,-4 -9,-6 1,-3 11,-8 14,-13 3,-4 -5,-4 -7,-4 -2,-1 -4,-1 -6,-1 -1,0 -4,1 -5,-1 0,-1 4,-9 4,-12 -2,-1 -5,1 -6,1l-5 2c0,0 -1,0 -1,1 -2,0 -11,5 -12,3 -1,-1 0,-4 1,-5 2,-5 14,-27 14,-28 -1,-1 0,-1 -1,-1 -2,-1 -11,1 -13,0 -1,-2 -2,-9 -2,-12 0,-4 -1,-7 -2,-11l-1 0c0,0 -1,0 -1,0 -4,3 -13,14 -16,16 -2,-1 -4,-3 -6,-4l-4 -4c-1,0 -1,0 -1,0 -2,1 -5,28 -7,34 -1,1 -1,2 -1,2 -2,1 -8,-10 -9,-12 0,0 0,0 -1,-1 -1,-2 -3,-7 -5,-7 -2,2 -3,11 -5,12 -1,0 -1,0 -3,-1 0,0 -1,-1 -2,-1 -1,-1 -3,-2 -4,-3 -3,-2 -8,-6 -8,-1 0,6 4,16 3,19 -3,0 -9,-2 -11,-1zm333 32l-37 0 5 -14c5,1 13,5 17,7 3,1 11,6 15,7zm18 -135l0 0c3,6 15,20 20,25 3,3 4,4 3,5 -2,1 -5,3 -6,3 -2,1 -5,2 -5,4 2,2 13,3 17,3 5,1 13,3 18,5l-6 19c-1,3 0,3 1,5l2 0c2,0 2,0 3,-3l7 -19c5,2 12,5 17,7 3,2 13,8 16,7 1,-2 -4,-8 -5,-11 0,-2 2,-2 5,-3 7,-2 26,-5 31,-8l0 0c-1,-2 -7,-4 -9,-6 1,-3 11,-9 14,-14 3,-4 -4,-4 -7,-4 -2,0 -4,0 -5,0 -2,0 -5,0 -5,-1 -1,-2 3,-10 3,-13 -2,-1 -5,1 -6,2l-5 2c0,0 -1,0 -1,0 -1,1 -11,5 -12,4 -1,-1 1,-4 1,-5 2,-6 14,-28 14,-29 0,-1 0,0 -1,-1 -1,0 -11,1 -13,1 -1,-2 -1,-9 -2,-12 0,-5 -1,-8 -2,-12l-1 0c0,0 0,0 -1,1 -4,3 -13,14 -16,15 -2,0 -4,-3 -6,-4l-3 -3c-2,-1 -2,-1 -2,-1 -2,1 -5,28 -7,35 0,1 -1,1 -1,1 -2,1 -8,-9 -9,-11 0,-1 0,-1 0,-1 -2,-3 -4,-7 -6,-8 -2,2 -3,11 -5,12 -1,1 -1,0 -2,-1 -1,0 -2,-1 -3,-1 -1,-1 -3,-2 -4,-3 -2,-2 -8,-6 -8,0 0,5 4,16 3,19 -3,0 -9,-2 -11,-1zm143 47l0 0c3,6 15,20 20,25 3,3 4,4 3,5 -2,2 -5,3 -6,3 -2,1 -5,2 -5,4 2,2 14,3 17,4 5,1 13,2 18,4l-6 19c-1,3 0,3 1,5l2 1c2,-1 2,-1 3,-4l7 -19c5,2 12,5 17,7 3,2 14,8 16,8 1,-3 -4,-9 -5,-12 0,-2 2,-2 5,-3 7,-1 26,-5 31,-8l0 0c-1,-2 -7,-4 -9,-6 1,-3 11,-9 14,-13 3,-5 -4,-5 -7,-5 -2,0 -4,0 -5,0 -1,0 -5,0 -5,-1 -1,-2 3,-10 3,-13 -2,0 -5,1 -6,2l-5 2c0,0 -1,0 -1,0 -1,1 -11,5 -12,4 -1,-1 1,-4 1,-5 2,-6 14,-28 14,-29 0,0 1,0 -1,-1 -1,0 -11,1 -13,1 -1,-2 -1,-9 -2,-12 0,-5 0,-8 -2,-12l-1 0c0,0 0,0 -1,1 -4,3 -13,14 -16,15 -2,0 -4,-3 -5,-4l-4 -3c-2,-1 -2,-1 -2,0 -2,1 -5,28 -7,34 0,1 -1,1 -1,1 -2,1 -8,-9 -9,-11 0,-1 0,-1 0,-1 -2,-2 -4,-7 -6,-8 -2,2 -3,11 -5,12 -1,1 -1,0 -2,-1 -1,0 -2,0 -3,-1 -1,-1 -2,-2 -4,-3 -2,-1 -8,-6 -8,0 0,5 4,16 3,19 -3,0 -9,-2 -11,-1zm48 -120l13 0 -1 1c-1,0 -1,0 -1,0 -2,1 -11,5 -12,4 -1,-1 0,-4 1,-5zm-745 327c1,-5 2,-9 3,-14 1,6 4,13 3,15 -2,0 -4,-1 -6,-1zm34 121l0 1c3,5 16,19 20,24 3,3 4,4 3,5 -2,2 -5,3 -6,3 -2,1 -5,3 -5,4 2,2 14,3 17,4 5,1 13,2 18,4l-6 19c-1,3 0,3 1,5l2 1c2,-1 3,-1 3,-4l7 -19c5,2 12,5 17,7 3,2 14,8 16,8 1,-3 -4,-9 -5,-12 0,-2 2,-2 5,-3 7,-1 26,-5 31,-8l0 0c-1,-2 -6,-4 -9,-6 1,-3 11,-9 14,-13 3,-5 -4,-5 -7,-5 -2,0 -4,0 -5,0 -1,0 -5,0 -5,-1 -1,-2 3,-10 3,-13 -2,0 -5,1 -6,2l-5 2c0,0 0,0 -1,0 -1,1 -11,5 -12,4 -1,-1 1,-4 1,-5 2,-5 14,-28 14,-29 0,0 1,0 -1,-1 -1,0 -11,1 -13,1 -1,-2 -1,-9 -2,-12 0,-5 0,-8 -2,-12l0 0c-1,0 -1,0 -2,1 -4,3 -13,14 -16,16 -1,-1 -4,-4 -5,-5l-4 -3c-2,-1 -2,-1 -2,0 -1,1 -5,28 -7,34 0,1 -1,1 -1,1 -2,1 -8,-9 -9,-11 0,-1 0,-1 0,-1 -2,-2 -4,-7 -6,-8 -2,2 -3,11 -5,12 0,1 -1,0 -2,0 -1,-1 -2,-1 -2,-2 -2,-1 -3,-2 -5,-3 -2,-1 -8,-6 -8,0 0,5 4,16 3,19 -3,0 -9,-2 -11,-1zm121 303c-8,-6 -16,-12 -23,-19 4,1 7,1 9,1 5,1 13,3 18,5l-4 13zm-82 -179l-1 1c3,5 16,19 21,24 2,3 4,4 2,6 -1,1 -4,2 -5,2 -2,1 -5,3 -6,4 2,2 14,3 17,4 6,1 14,2 19,4l-7 19c-1,3 0,3 1,5l2 1c2,-1 3,-1 4,-3l6 -20c5,2 13,5 18,8 3,1 13,7 16,7 0,-3 -5,-9 -5,-12 -1,-2 1,-2 4,-3 8,-1 26,-5 32,-7l0 -1c-1,-2 -7,-4 -9,-6 0,-3 10,-9 14,-13 3,-5 -5,-5 -8,-5 -1,0 -3,0 -5,0 -1,0 -4,0 -5,-1 -1,-2 4,-10 4,-13 -2,0 -5,1 -7,2l-4 2c-1,0 -1,0 -2,0 -1,1 -10,5 -11,4 -1,-1 0,-4 1,-5 2,-5 14,-28 13,-29 0,0 1,0 0,0 -2,-1 -11,0 -13,0 -1,-2 -2,-9 -2,-12 -1,-5 -1,-8 -3,-12l0 0c-1,0 -1,1 -1,1 -5,3 -14,14 -16,16 -2,-1 -5,-4 -6,-5l-4 -3c-1,-1 -1,-1 -2,0 -1,1 -4,28 -7,34 0,1 0,1 -1,2 -1,0 -7,-10 -8,-12 0,-1 0,-1 -1,-1 -1,-2 -4,-7 -5,-8 -3,2 -4,12 -5,12 -1,1 -2,0 -3,0 -1,-1 -1,-1 -2,-2 -2,-1 -3,-2 -4,-3 -3,-1 -9,-6 -9,0 0,5 5,16 4,19 -3,0 -9,-2 -11,-1zm574 55l6 0c0,1 0,2 -1,3 0,1 0,2 -1,2 -1,0 -3,-2 -4,-5zm-392 113l0 1c3,5 15,19 20,24 3,3 4,4 3,5 -2,2 -5,3 -6,3 -2,1 -5,2 -5,4 2,2 14,3 17,4 5,1 13,2 18,4l-6 19c-1,3 0,3 1,5l2 1c2,-1 3,-1 3,-4l7 -19c5,2 12,5 17,7 3,2 14,8 16,8 1,-3 -4,-9 -5,-12 0,-2 2,-2 5,-3 7,-1 26,-5 31,-8l0 0c-1,-2 -7,-4 -9,-6 1,-3 11,-9 14,-13 3,-5 -4,-5 -7,-5 -2,0 -4,0 -5,0 -1,0 -5,0 -5,-1 -1,-2 3,-10 3,-13 -2,0 -5,1 -6,2l-5 2c0,0 0,0 -1,0 -1,1 -11,5 -12,4 -1,-1 1,-4 1,-5 2,-5 14,-28 14,-29 0,0 1,0 -1,-1 -1,0 -11,1 -13,1 -1,-2 -1,-9 -2,-12 0,-5 0,-8 -2,-12l0 0c-1,0 -1,0 -2,1 -4,3 -13,14 -16,16 -2,-1 -4,-4 -5,-5l-4 -3c-2,-1 -2,-1 -2,0 -2,1 -5,28 -7,34 0,1 -1,1 -1,1 -2,1 -8,-9 -9,-11 0,-1 0,-1 0,-1 -2,-2 -4,-7 -6,-8 -2,2 -3,11 -5,12 0,1 -1,0 -2,0 -1,-1 -2,-1 -2,-2 -2,-1 -3,-2 -5,-3 -2,-1 -8,-6 -8,0 0,5 4,16 3,19 -3,0 -9,-2 -11,-1zm200 95l-3 0 0 -1c1,1 2,1 3,1zm-41 -208l15 0c-2,3 -5,6 -6,7 -2,-1 -5,-3 -6,-5l-3 -2zm88 86l0 1c2,5 15,19 20,25 2,2 4,4 2,5 -1,1 -4,2 -5,3 -2,1 -5,2 -6,3 2,2 14,3 18,4 5,1 13,3 18,5l-7 19c0,2 0,3 2,4l1 1c2,-1 3,0 4,-3l6 -19c5,1 13,5 18,7 3,1 13,7 16,7 0,-2 -5,-9 -5,-12 -1,-2 1,-2 5,-2 7,-2 25,-5 31,-8l0 -1c-1,-2 -7,-4 -9,-6 1,-3 10,-8 14,-13 3,-4 -5,-4 -7,-4 -2,-1 -4,-1 -6,-1 -1,0 -4,0 -5,-1 0,-2 4,-10 4,-13 -2,0 -5,2 -7,2l-4 2c-1,0 -1,0 -1,1 -2,0 -11,5 -12,3 -1,-1 0,-4 1,-5 2,-5 14,-27 14,-29 -1,0 0,0 -1,0 -2,-1 -11,1 -13,0 -1,-2 -2,-9 -2,-12 -1,-4 -1,-7 -2,-11l-1 -1c0,1 -1,1 -1,1 -4,3 -13,14 -16,16 -2,-1 -4,-3 -6,-4l-4 -4c-1,-1 -1,0 -2,0 -1,1 -4,28 -6,34 -1,1 -1,2 -2,2 -1,0 -7,-10 -8,-12 0,0 0,0 -1,-1 -1,-2 -3,-7 -5,-8 -2,3 -3,12 -5,13 -1,0 -1,0 -3,-1 0,-1 -1,-1 -2,-2 -1,-1 -3,-2 -4,-2 -3,-2 -9,-6 -9,-1 1,6 5,16 4,19 -3,0 -9,-2 -11,-1zm143 47l0 1c2,5 15,19 20,25 2,2 4,4 2,5 -1,1 -4,2 -5,3 -2,1 -5,2 -5,3 1,2 13,3 17,4 5,1 13,3 18,5l-6 19c-1,2 -1,3 1,4l1 1c2,-1 3,0 4,-3l6 -19c5,1 13,5 18,7 3,1 13,7 16,7 0,-2 -5,-9 -5,-12 -1,-1 1,-2 5,-2 7,-2 26,-5 31,-8l0 -1c-1,-2 -7,-4 -9,-6 1,-3 11,-8 14,-13 3,-4 -5,-4 -7,-4 -2,-1 -4,-1 -6,-1 -1,0 -4,0 -5,-1 0,-1 4,-9 4,-12 -2,-1 -5,1 -7,1l-4 2c0,0 -1,0 -1,1 -2,0 -11,5 -12,3 -1,-1 0,-4 1,-5 2,-5 14,-27 14,-28 -1,-1 0,-1 -1,-1 -2,-1 -11,1 -13,0 -1,-2 -2,-9 -2,-12 0,-4 -1,-7 -2,-11l-1 -1c0,1 -1,1 -1,1 -4,3 -13,14 -16,16 -2,-1 -4,-3 -6,-4l-4 -4c-1,0 -1,0 -1,0 -2,1 -5,28 -7,34 -1,1 -1,2 -2,2 -1,0 -7,-10 -8,-12 0,0 0,0 -1,-1 -1,-2 -3,-7 -5,-7 -2,2 -3,11 -5,12 -1,0 -1,0 -3,-1 0,0 -1,-1 -2,-1 -1,-1 -3,-2 -4,-3 -3,-2 -8,-6 -8,-1 0,6 4,16 3,19 -3,0 -9,-2 -11,-1z"/>
  <g style="clip-path:url(#id0)">
   <g id="_2752993000208">
    <rect class="fil1 str0" x="172" y="-667" width="518" height="408"/>
   </g>
  </g>
  <path class="fil2" d="M418 835c-10,0 -20,0 -29,-1 -1,-2 -1,-5 -1,-7 -1,-5 -1,-8 -3,-12l0 0c-1,0 -1,1 -1,1 -5,3 -14,14 -16,16 -2,-1 -5,-4 -6,-5l-4 -3c-1,-1 -1,-1 -2,0 0,0 -1,3 -1,7 -35,-5 -68,-15 -100,-28 3,-6 6,-10 5,-11 0,0 1,0 0,-1 -2,0 -11,1 -13,1 -1,-2 -2,-9 -2,-12 -1,-5 -1,-8 -3,-12l0 0c-1,0 -1,0 -1,1 -5,3 -14,14 -17,15 -1,0 -4,-3 -5,-4l-4 -3c-1,-1 -1,-1 -2,0 0,0 -1,2 -1,5l-3 -2c-14,-8 -26,-16 -38,-25l5 -15c5,2 12,5 17,7 3,2 14,8 16,8 1,-3 -4,-9 -5,-12 0,-2 2,-2 5,-3 7,-1 26,-5 31,-8l0 0c-1,-2 -7,-4 -9,-6 1,-3 11,-9 14,-14 3,-4 -4,-4 -7,-4 -2,0 -4,0 -5,0 -1,0 -5,0 -5,-1 -1,-2 3,-10 3,-13 -2,-1 -5,1 -6,2l-5 2c0,0 -1,0 -1,0 -1,1 -11,5 -12,4 -1,-1 1,-4 1,-5 2,-6 14,-28 14,-29 0,0 1,0 -1,-1 -1,0 -11,1 -13,1 -1,-2 -1,-9 -2,-12 0,-5 0,-8 -2,-12l-1 0c0,0 0,0 -1,1 -4,3 -13,14 -16,15 -2,0 -4,-3 -5,-4l-4 -3c-2,-1 -2,-1 -2,-1 -2,1 -5,28 -7,35 0,1 -1,1 -1,1 -2,1 -8,-9 -9,-11 0,-1 0,-1 0,-1 -2,-2 -4,-7 -6,-8 -2,2 -3,11 -5,12 -1,1 -1,0 -2,-1 -1,0 -2,-1 -3,-1 -1,-1 -2,-2 -4,-3 -2,-1 -8,-6 -8,0 0,5 4,16 3,19 -3,0 -9,-2 -11,-1l0 0c3,6 15,20 20,25 3,3 4,4 3,5 -2,1 -5,3 -6,3 -1,1 -1,1 -2,1 -15,-13 -28,-27 -40,-42l0 0 0 0c0,-1 -2,-2 -3,-3 -2,-2 -3,-4 -4,-6 3,-3 9,-7 12,-11 3,-4 -4,-4 -7,-4 -2,0 -4,0 -5,0 -2,0 -5,0 -5,-1 -1,-2 3,-10 3,-13 -2,-1 -5,1 -6,2l-5 1c0,1 -1,1 -1,1 -1,0 -2,1 -4,2 -1,-3 -3,-5 -5,-8 4,-8 12,-23 12,-24 0,-1 0,0 -1,-1 -1,0 -11,1 -13,1 -1,-2 -1,-9 -2,-12 0,-5 -1,-8 -2,-12l-1 0c0,0 0,0 -1,1 -3,2 -8,8 -12,12 -7,-13 -13,-25 -18,-38 9,-2 24,-5 29,-8l0 0c-1,-2 -7,-4 -10,-6 1,-3 11,-9 14,-13 4,-5 -4,-5 -7,-5 -1,0 -3,0 -5,0 -1,0 -4,0 -5,-1 -1,-2 4,-10 4,-13 -2,0 -5,1 -7,2l-4 2c-1,0 -1,0 -2,0 -1,1 -10,5 -11,4 -1,-1 0,-4 1,-5 2,-5 14,-28 13,-29 0,0 1,0 0,-1 -2,0 -11,1 -13,1 -1,-2 -2,-9 -2,-12 -1,-5 -1,-8 -3,-12l0 0c-1,0 -1,0 -1,1 -4,2 -10,9 -14,13 -2,-14 -4,-29 -5,-45 7,-1 15,-3 18,-5l0 0c-1,-2 -7,-4 -9,-6 1,-3 11,-9 14,-14 3,-4 -4,-4 -7,-4 -2,0 -4,0 -5,0 -1,0 -5,0 -5,-1 -1,-2 3,-10 3,-13 -2,-1 -5,1 -6,2l-4 1c1,-24 4,-48 8,-72 5,7 13,15 17,20 2,2 4,3 2,5 -1,1 -4,2 -5,3 -2,0 -5,2 -6,3 2,2 14,3 18,4 5,1 13,2 18,4l-7 19c0,3 0,4 2,5l1 1c2,-1 3,-1 4,-3l6 -19c5,1 13,4 18,7 3,1 13,7 16,7 0,-3 -5,-9 -5,-12 -1,-2 1,-2 5,-3 7,-1 25,-5 31,-7l0 -1c-1,-2 -7,-4 -9,-6 0,-3 10,-9 14,-13 3,-5 -5,-4 -7,-5 -2,0 -4,0 -6,0 -1,0 -4,0 -5,-1 -1,-2 4,-10 4,-13 -2,0 -5,1 -7,2l-4 2c-1,0 -1,0 -1,0 -2,1 -11,5 -12,4 -1,-1 0,-4 1,-5 2,-5 14,-28 14,-29 -1,0 0,0 -1,0 -2,-1 -11,1 -13,0 -1,-2 -2,-9 -2,-12 -1,-5 -1,-8 -2,-12l-1 0c0,1 -1,1 -1,1 -4,3 -13,14 -16,16 -2,-1 -5,-3 -6,-5l-4 -3c-1,-1 -1,0 -2,0 -1,1 -4,28 -6,34 -1,1 -1,1 -2,2 -1,0 -7,-10 -8,-12 0,-1 0,-1 -1,-1 -1,-2 -3,-7 -5,-8 -2,3 -4,12 -5,13 -1,0 -1,0 -3,-1 -1,-1 -1,-1 -2,-2 -1,-1 -3,-2 -4,-3 -2,-1 -4,-2 -6,-3 4,-17 10,-34 17,-51 2,1 4,2 5,3 3,1 14,7 16,7 1,-3 -4,-9 -5,-12 0,-2 2,-2 5,-3 8,-1 26,-5 31,-7l0 -1c-1,-2 -6,-4 -9,-6 1,-3 11,-9 14,-13 3,-5 -4,-5 -7,-5 -2,0 -3,0 -5,0 -1,0 -5,0 -5,-1 -1,-2 4,-10 3,-13 -2,0 -5,1 -6,2l-4 2c-1,0 -1,0 -2,0 -1,1 -6,3 -9,4l2 -4c9,-14 18,-28 27,-41 4,1 13,2 16,3 5,1 13,3 18,5l-6 19c-1,2 -1,3 1,4l1 1c2,-1 3,0 4,-3l6 -19c5,1 13,5 18,7 3,1 13,7 16,7 0,-2 -5,-9 -5,-12 -1,-2 1,-2 5,-2 7,-2 26,-5 31,-8l0 -1c-1,-2 -7,-4 -9,-6 1,-3 11,-8 14,-13 3,-4 -5,-4 -7,-4 -2,-1 -4,-1 -6,-1 -1,0 -4,0 -5,-1 0,-2 4,-9 4,-13 -2,0 -5,2 -7,2l-4 2c0,0 -1,0 -1,1 -2,0 -11,5 -12,3 -1,-1 0,-4 1,-5 2,-5 14,-27 14,-29 -1,0 0,0 -1,0 -2,-1 -11,1 -13,0 -1,-2 -2,-8 -2,-11 11,-8 22,-16 33,-24 3,3 6,7 8,9 2,2 3,4 2,5 -1,1 -4,2 -6,3 -1,1 -4,2 -5,3 2,2 14,3 17,4 5,1 14,3 18,5l-6 19c-1,2 0,3 1,4l2 1c2,-1 3,0 4,-3l6 -19c5,1 13,5 17,7 4,1 14,7 16,7 1,-2 -4,-9 -5,-12 0,-2 2,-2 5,-2 8,-2 26,-5 31,-8l1 -1c-1,-2 -7,-4 -10,-6 1,-3 11,-8 14,-13 3,-4 -4,-4 -7,-4 -2,-1 -3,-1 -5,-1 -1,0 -4,0 -5,-1 -1,-2 4,-9 3,-13 -1,0 -5,2 -6,2l-4 2c-1,0 -1,0 -2,1 -1,0 -10,5 -12,3 0,-1 1,-4 1,-5 3,-5 15,-27 14,-29 0,0 1,0 -1,0 0,0 -2,0 -4,0 9,-3 18,-7 27,-9 4,0 9,1 11,1 5,1 13,3 18,5l-6 19c-1,3 0,3 1,5l2 0c2,0 2,0 3,-3l7 -19c5,1 12,5 17,7 3,2 13,8 16,7 0,-2 -4,-8 -5,-11 0,-2 2,-2 5,-3 7,-2 26,-5 31,-8l0 0c-1,-3 -7,-5 -9,-6 1,-3 8,-8 12,-12 6,0 13,0 19,0l53 0c-2,8 -3,16 -4,20 -1,1 -1,1 -1,1 -2,1 -8,-10 -9,-11 0,-1 0,-1 0,-2 -2,-2 -4,-6 -6,-7 -2,2 -3,11 -5,12 -1,1 -1,0 -2,-1 -1,0 -2,-1 -3,-1 -1,-1 -3,-2 -4,-3 -3,-2 -8,-6 -8,0 0,5 4,16 3,18 -3,1 -9,-1 -11,0l0 0c3,6 15,19 20,25 2,3 4,4 3,5 -2,1 -5,2 -6,3 -2,1 -5,2 -5,4 2,1 13,3 17,3 5,1 13,3 18,5l-6 19c-1,3 0,3 1,5l2 0c2,0 2,0 3,-3l7 -19c5,1 12,5 17,7 3,2 13,8 16,7 1,-2 -4,-8 -5,-11 0,-2 2,-2 5,-3 7,-2 26,-5 31,-8l0 0c-1,-2 -7,-4 -9,-6 1,-3 11,-9 14,-14 3,-4 -4,-4 -7,-4 -2,0 -4,0 -5,0 -2,0 -5,0 -5,-1 -1,-2 3,-10 3,-13 -2,-1 -5,1 -6,1l-5 2c0,1 -1,1 -1,1 -1,1 -11,5 -12,3 -1,-1 1,-3 1,-4 2,-6 14,-28 14,-29 0,-1 0,0 -1,-1 -2,0 -11,1 -13,1l0 -1 64 0 -5 13c0,3 0,3 2,5l1 0c2,0 3,0 4,-3l5 -15 12 0c2,1 5,2 7,3 3,2 13,8 16,7 0,-2 -4,-7 -5,-10l63 0c5,6 14,17 18,21 2,3 4,4 2,5 -1,1 -4,3 -5,3 -2,1 -5,2 -6,4 2,2 14,3 18,3 5,1 13,3 18,5l-7 19c0,3 0,3 2,5l1 0c2,0 3,0 4,-3l6 -19c5,2 13,5 18,7 3,2 13,8 16,7 0,-2 -5,-8 -5,-11 -1,-2 1,-2 5,-3 7,-2 25,-5 31,-8l0 0c-1,-2 -7,-4 -9,-6 0,-3 10,-9 14,-14 3,-4 -5,-4 -7,-4 -2,0 -4,0 -6,0 -1,0 -4,0 -5,-1 0,-2 2,-6 3,-10l58 0 0 30 -1 -1c0,0 -1,0 -2,-1 -1,-1 -3,-2 -4,-3 -3,-1 -9,-6 -9,0 0,5 5,16 4,19 -3,0 -9,-2 -11,-1l0 0c2,6 15,20 20,25 2,3 4,4 2,5 -1,2 -4,3 -5,3 -2,1 -5,2 -6,4 2,1 8,2 12,3l0 125 -4 0 0 -4c-1,-5 -1,-8 -3,-12l0 0c-1,0 -1,0 -1,1 -4,2 -13,13 -16,15l-1 0c-2,-1 -4,-3 -5,-4l-4 -3c-1,-1 -1,-1 -2,-1 0,1 -1,4 -2,8l-87 0c-1,0 -1,0 -1,0 -1,-2 4,-10 4,-13 -2,-1 -5,1 -7,1l-4 2c-1,1 -1,1 -2,1 -1,0 -10,5 -11,3 -1,-1 0,-3 1,-4 2,-6 14,-28 13,-29 0,-1 1,0 0,-1 -2,0 -11,1 -13,0 -1,-2 -2,-9 -2,-11 -1,-5 -1,-8 -3,-12l0 0c-1,0 -1,0 -1,0 -5,3 -14,15 -16,16 -2,0 -5,-3 -6,-4l-4 -3c-1,-1 -1,-1 -2,-1 -1,1 -4,28 -7,35 0,1 0,1 -1,1 -1,1 -7,-10 -8,-11 -1,-1 -1,-1 -1,-2 -1,-2 -4,-7 -5,-7 -3,2 -4,11 -5,12 -1,0 -2,0 -3,-1 -1,0 -1,-1 -2,-1 -2,-1 -3,-2 -5,-3 -2,-2 -8,-6 -8,0 0,5 5,15 4,18 -3,0 -9,-1 -11,0l-1 0c2,3 6,9 11,14l-67 0c1,-2 -4,-9 -4,-11 -1,-2 1,-2 4,-3 8,-2 26,-5 32,-8l0 -1c-1,-2 -7,-4 -10,-6 1,-3 11,-8 14,-13 3,-4 -4,-4 -7,-4 -1,0 -3,0 -5,-1 -1,0 -4,1 -5,-1 -1,-1 4,-9 3,-12 -1,-1 -4,1 -6,1l-4 2c-1,0 -1,1 -2,1 -1,0 -10,5 -11,3 -1,-1 0,-3 1,-4 2,-6 14,-28 13,-29 0,-1 1,-1 0,-1 -2,0 -11,1 -13,0 -1,-2 -2,-9 -2,-12 -1,-4 -1,-7 -3,-11l0 0c-1,0 -1,0 -1,0 -5,3 -14,15 -17,16 -1,-1 -4,-3 -5,-4l-4 -3c-1,-1 -1,-1 -2,-1 -1,1 -4,28 -7,34 0,2 0,2 -1,2 -1,1 -7,-10 -8,-11 -1,-1 -1,-1 -1,-2 -1,-2 -4,-7 -5,-7 -3,2 -4,11 -5,12 -1,0 -2,0 -3,-1 -1,0 -1,-1 -2,-1 -2,-1 -3,-2 -5,-3 -2,-2 -8,-6 -8,-1 0,6 5,16 4,19 -3,0 -9,-1 -11,0l-1 0c3,5 16,19 21,25 2,2 4,4 2,5 -1,1 -4,2 -6,3 -1,1 -4,2 -5,3 2,2 14,4 17,4 6,1 14,3 19,5l-6 16 -50 0c2,-5 4,-9 4,-9 0,-1 0,-1 -1,-1 -2,0 -11,1 -13,0 -1,-2 -2,-9 -2,-12 0,-4 -1,-7 -2,-11l-1 0c0,0 -1,0 -1,0 -4,3 -13,15 -16,16 -2,-1 -4,-3 -6,-4l-4 -3c-1,-1 -1,-1 -1,-1 -1,1 -3,15 -5,25 -4,1 -7,1 -11,1 0,0 -1,-1 -1,-1 0,-1 0,-1 -1,-2 -1,-2 -3,-7 -5,-7 -2,2 -3,11 -5,12l0 0 -1 0c0,0 -1,0 -2,-1 0,0 -1,-1 -2,-1 -1,-1 -3,-2 -4,-3 -3,-2 -8,-6 -8,-1 0,3 0,6 1,9 -36,9 -67,28 -95,56 -2,2 -5,4 -7,7 -2,-1 -3,-1 -3,2 0,0 0,1 0,1 -12,14 -22,29 -30,46l0 -1 -1 0c0,1 -1,1 -1,1 -4,3 -13,14 -16,16 -2,-1 -5,-3 -6,-5l-4 -3c-1,-1 -1,0 -2,0 -1,1 -4,28 -6,34 -1,1 -1,2 -2,2 -1,0 -7,-10 -8,-12 0,0 0,0 -1,-1 -1,-2 -3,-7 -5,-8 -2,3 -3,12 -5,13 -1,0 -1,0 -3,-1 0,-1 -1,-1 -2,-2 -1,-1 -3,-2 -4,-3 -3,-1 -9,-5 -9,0 0,6 5,16 4,19 -3,0 -9,-2 -11,-1l0 1c2,5 15,19 20,25 2,2 4,3 2,5 -1,1 -4,2 -5,3 -2,1 -5,2 -6,3 2,2 14,3 18,4 5,1 13,3 18,4l-7 20c0,2 0,3 2,4l1 1c2,-1 3,-1 4,-3l6 -19c3,0 5,1 8,2 1,17 3,33 7,49 -1,3 -2,9 -4,9 0,1 -1,0 -2,0 -1,-1 -2,-1 -2,-2 -2,-1 -3,-2 -5,-3 -2,-1 -8,-6 -8,0 0,5 4,16 3,19 -3,0 -9,-2 -11,-1l0 1c3,5 16,19 21,24 2,3 3,4 2,6 -1,1 -5,2 -6,2 -2,1 -4,3 -5,4 2,2 14,3 17,4 5,1 13,2 18,4l-6 19c-1,3 0,3 1,5l2 1c2,-1 3,-1 4,-3l6 -20c3,1 8,3 13,5 5,7 10,13 16,19 7,7 14,13 22,19 -1,1 -2,1 -2,2 -2,-1 -5,-3 -6,-5l-4 -3c-1,-1 -1,-1 -2,0 -1,1 -4,28 -6,34 -1,1 -1,1 -2,2 -1,0 -7,-10 -8,-12 0,-1 0,-1 -1,-1 -1,-2 -3,-7 -5,-8 -2,3 -4,12 -5,13 -1,0 -1,0 -3,-1 -1,-1 -1,-1 -2,-2 -2,-1 -3,-2 -4,-3 -3,-1 -9,-5 -9,0 0,6 5,16 4,19 -3,0 -9,-2 -11,-1l0 1c2,5 15,19 20,25 2,2 4,3 2,5 -1,1 -4,2 -5,3 -2,0 -5,2 -6,3 2,2 14,3 18,4 5,1 13,2 18,4l-7 19c0,3 0,4 2,5l1 1c2,-1 3,-1 4,-3l6 -19c5,1 13,4 18,7 3,1 13,7 16,7 0,-3 -5,-9 -5,-12 -1,-2 1,-2 5,-3 7,-1 25,-5 31,-7l0 -1c-1,-2 -7,-4 -9,-6 0,-3 10,-9 14,-13 3,-5 -5,-4 -7,-5 -2,0 -4,0 -6,0 -1,0 -4,0 -5,-1 -1,-2 4,-10 4,-13 -2,0 -5,1 -7,2l-4 2c-1,0 -1,0 -2,0 -1,1 -10,5 -11,4 -1,-1 0,-4 1,-5 1,-3 6,-12 9,-19 29,16 62,23 97,23l3 0c-2,6 -4,28 -6,33 -1,1 -1,1 -2,2 -1,0 -7,-10 -8,-12 0,0 0,0 -1,-1 -1,-2 -3,-7 -5,-8 -2,3 -3,12 -5,13 -1,0 -1,0 -3,-1 0,-1 -1,-1 -2,-2 -1,-1 -3,-2 -4,-3 -3,-1 -9,-5 -9,0 0,6 5,16 4,19 -3,0 -9,-2 -11,-1l0 1c2,5 15,19 20,25 2,2 4,3 2,5 -1,1 -4,2 -5,3 -2,1 -5,2 -6,3 2,2 14,3 18,4 5,1 13,3 18,4l-7 20c0,2 0,3 2,4l1 1c2,-1 3,-1 4,-3l6 -19c5,1 13,4 18,7 3,1 13,7 16,7 0,-3 -5,-9 -5,-12 -1,-2 1,-2 5,-2 7,-2 25,-6 31,-8l0 -1c-1,-2 -7,-4 -9,-6 1,-3 10,-9 14,-13 3,-4 -5,-4 -7,-5 -2,0 -4,0 -6,0 -1,0 -4,0 -5,-1 -1,-2 4,-10 4,-13 -2,0 -5,1 -7,2l-4 2c-1,0 -1,0 -1,1 -2,0 -11,4 -12,3 -1,-1 0,-4 1,-5 2,-5 14,-27 14,-29 -1,0 0,0 -1,0 -2,-1 -11,1 -13,0 -1,-2 -2,-9 -2,-12l0 -2 35 0c4,1 11,2 14,3 5,1 14,3 18,4l-6 20c-1,2 0,3 1,4l2 1c2,-1 3,-1 4,-3l6 -19c5,1 12,4 17,7 3,1 14,7 16,7 1,-3 -4,-9 -5,-12 0,-2 2,-2 5,-2 8,-2 26,-6 31,-8l1 -1c-1,0 -1,0 -1,-1l35 0c1,4 2,8 2,10 -4,0 -9,-2 -12,-1l0 1c3,5 16,19 21,25 2,2 3,4 2,5 -1,1 -4,2 -6,3 -2,1 -4,2 -5,3 2,2 14,3 17,4 5,1 14,3 18,5l-6 19c-1,2 0,3 1,4l2 1c2,-1 3,0 4,-3l6 -19c5,1 13,5 17,7 4,1 14,7 16,7 1,-2 -4,-9 -5,-12 0,-2 2,-2 5,-2 8,-2 26,-5 31,-8l1 -1c-2,-2 -7,-4 -10,-6 1,-3 11,-8 14,-13 3,-4 -4,-4 -7,-4 -2,-1 -3,-1 -5,-1 -1,0 -5,0 -5,-1 -1,-2 4,-9 3,-13 -1,0 -5,2 -6,2l-4 2c-1,0 -1,0 -2,1 -1,0 -10,5 -12,3 0,-1 1,-4 1,-5 1,-2 4,-7 7,-13l52 0c-1,3 0,3 1,5l2 0c1,0 2,0 3,-3l1 -2 67 0 0 12c-4,4 -10,11 -12,12 -1,-1 -4,-3 -5,-4l-4 -4c-1,0 -2,0 -2,0 -1,1 -4,28 -7,34 0,1 0,2 -1,2 -2,0 -7,-10 -8,-12 -1,0 -1,0 -1,-1 -1,-2 -4,-7 -6,-7 -2,2 -3,11 -4,12 -1,0 -2,0 -3,-1 -1,0 -2,-1 -2,-1 -2,-1 -3,-2 -5,-3 -2,-2 -8,-6 -8,-1 0,6 5,16 4,19 -4,0 -9,-2 -12,-1l0 1c3,5 16,19 21,25 2,2 3,4 2,5 -1,1 -4,2 -6,3 -1,1 -4,2 -5,3 2,2 14,3 17,4 5,1 14,3 18,5l-6 19c-1,3 0,3 1,4l2 1c2,-1 3,0 4,-3l6 -19c5,1 13,5 17,7 1,0 3,1 5,3l0 53c0,-1 -1,-2 -1,-2 0,-1 0,-1 -1,-2 -1,-2 -3,-7 -5,-7 -2,2 -3,11 -5,12 -1,0 -1,0 -3,-1 0,0 -1,-1 -2,-1 -1,-1 -3,-2 -4,-3 -3,-2 -8,-6 -8,-1 0,6 4,16 3,19 -3,0 -9,-2 -11,0l0 0c2,5 15,19 20,25 1,1 2,2 2,2l-43 0c0,-1 0,-2 -1,-3l0 0c-1,1 -1,1 -2,1 0,1 -1,1 -2,2l-112 0 0 0c0,0 -1,0 -2,0l-19 0c3,-8 12,-25 12,-26 0,0 1,0 -1,0 -1,-1 -10,1 -13,0 -1,-2 -1,-9 -1,-12 -1,-5 -1,-8 -3,-12l0 0c-1,1 -1,1 -2,1 -4,3 -13,14 -16,16 -1,-1 -4,-3 -5,-5l-4 -3c-2,-1 -2,-1 -2,0 -1,1 -5,28 -7,34 0,1 0,1 -1,2 -2,0 -8,-10 -8,-12 -1,-1 -1,-1 -1,-1 -1,-2 -4,-7 -6,-8 -2,3 -3,12 -5,13 0,0 -1,0 -2,-1 -1,-1 -2,-1 -2,-2 -2,-1 -3,-2 -5,-3 -2,-1 -8,-5 -8,0 0,6 4,16 3,19 -3,0 -9,-2 -11,-1l0 1 0 0 -60 0c1,0 2,0 4,-1 7,-1 26,-5 31,-7l0 -1c-1,-2 -6,-4 -9,-6 1,-3 11,-9 14,-13 3,-5 -4,-5 -7,-5 -2,0 -4,0 -5,0 -1,0 -5,0 -5,-1 -1,-2 4,-10 3,-13 -2,0 -5,1 -6,2l-5 2c0,0 0,0 -1,0 -1,1 -11,5 -12,4 -1,-1 1,-4 1,-5 3,-5 14,-28 14,-29 0,0 1,0 -1,0 -1,-1 -11,0 -13,0 -1,-2 -1,-9 -2,-12 0,-5 0,-8 -2,-12l0 0c-1,0 -1,1 -2,1 -4,3 -13,14 -16,16 -1,-1 -4,-4 -5,-5l-4 -3c-2,-1 -2,-1 -2,0 -1,1 -5,28 -7,34 0,1 0,1 -1,2 -2,0 -8,-10 -9,-12 0,-1 0,-1 0,-1 -2,-2 -4,-7 -6,-8 -2,2 -3,12 -5,12 0,1 -1,0 -2,0 -1,-1 -2,-1 -2,-2 -2,-1 -3,-2 -5,-3 -2,-1 -8,-6 -8,0 0,5 4,16 3,19 -3,0 -9,-2 -11,-1l0 1c3,5 16,19 20,24 3,3 4,4 3,6 -2,1 -5,2 -6,2 -2,1 -4,3 -5,4 2,2 14,3 17,4 5,1 13,2 18,4l-1 3 -36 0zm-100 -736l-1 1c3,5 16,19 21,25 2,2 4,4 2,5 -1,1 -4,2 -6,3 -1,1 -4,2 -5,3 2,2 14,3 17,4 5,1 14,3 19,5l-7 19c-1,3 0,3 1,4l2 1c2,-1 3,0 4,-3l6 -19c5,1 13,5 17,7 4,1 14,8 16,7 1,-2 -4,-9 -5,-11 0,-2 2,-3 5,-3 8,-2 26,-5 32,-8l0 -1c-1,-2 -7,-4 -10,-6 1,-3 11,-8 14,-13 3,-4 -4,-4 -7,-4 -1,-1 -3,-1 -5,-1 -1,0 -4,1 -5,-1 -1,-1 4,-9 3,-12 -1,-1 -4,1 -6,1l-4 2c-1,0 -1,0 -2,1 -1,0 -10,5 -12,3 0,-1 1,-4 2,-5 2,-5 14,-27 13,-28 0,-1 1,-1 0,-1 -2,-1 -11,1 -13,0 -1,-2 -2,-9 -2,-12 -1,-4 -1,-7 -3,-11l0 0c-1,0 -1,0 -1,0 -5,3 -14,14 -17,16 -1,-1 -4,-3 -5,-4l-4 -4c-1,0 -2,0 -2,0 -1,1 -4,28 -7,34 0,1 0,2 -1,2 -2,1 -7,-10 -8,-12 -1,0 -1,0 -1,-1 -1,-2 -4,-7 -6,-7 -2,2 -3,11 -4,12 -1,0 -2,0 -3,-1 -1,0 -1,-1 -2,-1 -2,-1 -3,-2 -5,-3 -2,-2 -8,-6 -8,-1 0,6 5,16 4,19 -3,0 -9,-2 -11,-1zm-232 64c2,-2 4,-4 5,-7 2,2 3,3 1,4 -1,1 -4,2 -5,3l-1 0zm23 87l0 1c3,5 16,19 21,25 2,2 3,3 2,5 -1,1 -4,2 -6,3 -2,0 -4,2 -5,3 2,2 14,3 17,4 5,1 14,2 18,4l-6 19c-1,3 0,4 1,5l2 1c2,-1 3,-1 4,-3l6 -19c5,1 12,4 17,7 3,1 14,7 16,7 1,-3 -4,-9 -5,-12 0,-2 2,-2 5,-3 8,-1 26,-5 31,-7l1 -1c-2,-2 -7,-4 -10,-6 1,-3 11,-9 14,-13 3,-5 -4,-4 -7,-5 -2,0 -3,0 -5,0 -1,0 -5,0 -5,-1 -1,-2 4,-10 3,-13 -1,0 -5,1 -6,2l-4 2c-1,0 -1,0 -2,0 -1,1 -10,5 -12,4 0,-1 1,-4 1,-5 3,-5 15,-28 14,-29 0,0 1,0 -1,0 -1,-1 -10,1 -13,0 -1,-2 -1,-9 -1,-12 -1,-5 -1,-8 -3,-12l0 0c-1,1 -1,1 -2,1 -4,3 -13,14 -16,16 -1,-1 -4,-3 -5,-5l-4 -3c-2,-1 -2,0 -2,0 -1,1 -5,28 -7,34 0,1 0,1 -1,2 -2,0 -8,-10 -8,-12 -1,-1 -1,-1 -1,-1 -1,-2 -4,-7 -6,-8 -2,3 -3,12 -5,13 0,0 -1,0 -2,-1 -1,-1 -2,-1 -2,-2 -2,-1 -3,-2 -5,-3 -2,-1 -8,-5 -8,0 0,6 4,16 3,19 -3,0 -8,-2 -11,-1zm104 -74l0 1c2,5 15,19 20,25 2,2 4,4 2,5 -1,1 -4,2 -5,3 -2,1 -5,2 -5,3 1,2 13,3 17,4 5,1 13,3 18,5l-6 19c-1,3 -1,3 1,4l1 1c2,-1 3,0 4,-3l6 -19c6,1 13,5 18,7 3,1 13,7 16,7 0,-2 -5,-9 -5,-11 -1,-2 1,-3 5,-3 7,-2 26,-5 31,-8l0 -1c-1,-2 -7,-4 -9,-6 1,-3 11,-8 14,-13 3,-4 -5,-4 -7,-4 -2,-1 -4,-1 -6,-1 -1,0 -4,1 -5,-1 0,-1 4,-9 4,-12 -2,-1 -5,1 -6,1l-5 2c0,0 -1,0 -1,1 -2,0 -11,5 -12,3 -1,-1 0,-4 1,-5 2,-5 14,-27 14,-28 -1,-1 0,-1 -1,-1 -2,-1 -11,1 -13,0 -1,-2 -2,-9 -2,-12 0,-4 -1,-7 -2,-11l-1 0c0,0 -1,0 -1,0 -4,3 -13,14 -16,16 -2,-1 -4,-3 -6,-4l-4 -4c-1,0 -1,0 -1,0 -2,1 -5,28 -7,34 -1,1 -1,2 -1,2 -2,1 -8,-10 -9,-12 0,0 0,0 -1,-1 -1,-2 -3,-7 -5,-7 -2,2 -3,11 -5,12 -1,0 -1,0 -3,-1 0,0 -1,-1 -2,-1 -1,-1 -3,-2 -4,-3 -3,-2 -8,-6 -8,-1 0,6 4,16 3,19 -3,0 -9,-2 -11,-1zm333 32l-37 0 5 -14c5,1 13,5 17,7 3,1 11,6 15,7zm18 -135l0 0c3,6 15,20 20,25 3,3 4,4 3,5 -2,1 -5,3 -6,3 -2,1 -5,2 -5,4 2,2 13,3 17,3 5,1 13,3 18,5l-6 19c-1,3 0,3 1,5l2 0c2,0 2,0 3,-3l7 -19c5,2 12,5 17,7 3,2 13,8 16,7 1,-2 -4,-8 -5,-11 0,-2 2,-2 5,-3 7,-2 26,-5 31,-8l0 0c-1,-2 -7,-4 -9,-6 1,-3 11,-9 14,-14 3,-4 -4,-4 -7,-4 -2,0 -4,0 -5,0 -2,0 -5,0 -5,-1 -1,-2 3,-10 3,-13 -2,-1 -5,1 -6,2l-5 2c0,0 -1,0 -1,0 -1,1 -11,5 -12,4 -1,-1 1,-4 1,-5 2,-6 14,-28 14,-29 0,-1 0,0 -1,-1 -1,0 -11,1 -13,1 -1,-2 -1,-9 -2,-12 0,-5 -1,-8 -2,-12l-1 0c0,0 0,0 -1,1 -4,3 -13,14 -16,15 -2,0 -4,-3 -6,-4l-3 -3c-2,-1 -2,-1 -2,-1 -2,1 -5,28 -7,35 0,1 -1,1 -1,1 -2,1 -8,-9 -9,-11 0,-1 0,-1 0,-1 -2,-3 -4,-7 -6,-8 -2,2 -3,11 -5,12 -1,1 -1,0 -2,-1 -1,0 -2,-1 -3,-1 -1,-1 -3,-2 -4,-3 -2,-2 -8,-6 -8,0 0,5 4,16 3,19 -3,0 -9,-2 -11,-1zm143 47l0 0c3,6 15,20 20,25 3,3 4,4 3,5 -2,2 -5,3 -6,3 -2,1 -5,2 -5,4 2,2 14,3 17,4 5,1 13,2 18,4l-6 19c-1,3 0,3 1,5l2 1c2,-1 2,-1 3,-4l7 -19c5,2 12,5 17,7 3,2 14,8 16,8 1,-3 -4,-9 -5,-12 0,-2 2,-2 5,-3 7,-1 26,-5 31,-8l0 0c-1,-2 -7,-4 -9,-6 1,-3 11,-9 14,-13 3,-5 -4,-5 -7,-5 -2,0 -4,0 -5,0 -1,0 -5,0 -5,-1 -1,-2 3,-10 3,-13 -2,0 -5,1 -6,2l-5 2c0,0 -1,0 -1,0 -1,1 -11,5 -12,4 -1,-1 1,-4 1,-5 2,-6 14,-28 14,-29 0,0 1,0 -1,-1 -1,0 -11,1 -13,1 -1,-2 -1,-9 -2,-12 0,-5 0,-8 -2,-12l-1 0c0,0 0,0 -1,1 -4,3 -13,14 -16,15 -2,0 -4,-3 -5,-4l-4 -3c-2,-1 -2,-1 -2,0 -2,1 -5,28 -7,34 0,1 -1,1 -1,1 -2,1 -8,-9 -9,-11 0,-1 0,-1 0,-1 -2,-2 -4,-7 -6,-8 -2,2 -3,11 -5,12 -1,1 -1,0 -2,-1 -1,0 -2,0 -3,-1 -1,-1 -2,-2 -4,-3 -2,-1 -8,-6 -8,0 0,5 4,16 3,19 -3,0 -9,-2 -11,-1zm48 -120l13 0 -1 1c-1,0 -1,0 -1,0 -2,1 -11,5 -12,4 -1,-1 0,-4 1,-5zm-745 327c1,-5 2,-9 3,-14 1,6 4,13 3,15 -2,0 -4,-1 -6,-1zm34 121l0 1c3,5 16,19 20,24 3,3 4,4 3,5 -2,2 -5,3 -6,3 -2,1 -5,3 -5,4 2,2 14,3 17,4 5,1 13,2 18,4l-6 19c-1,3 0,3 1,5l2 1c2,-1 3,-1 3,-4l7 -19c5,2 12,5 17,7 3,2 14,8 16,8 1,-3 -4,-9 -5,-12 0,-2 2,-2 5,-3 7,-1 26,-5 31,-8l0 0c-1,-2 -6,-4 -9,-6 1,-3 11,-9 14,-13 3,-5 -4,-5 -7,-5 -2,0 -4,0 -5,0 -1,0 -5,0 -5,-1 -1,-2 3,-10 3,-13 -2,0 -5,1 -6,2l-5 2c0,0 0,0 -1,0 -1,1 -11,5 -12,4 -1,-1 1,-4 1,-5 2,-5 14,-28 14,-29 0,0 1,0 -1,-1 -1,0 -11,1 -13,1 -1,-2 -1,-9 -2,-12 0,-5 0,-8 -2,-12l0 0c-1,0 -1,0 -2,1 -4,3 -13,14 -16,16 -1,-1 -4,-4 -5,-5l-4 -3c-2,-1 -2,-1 -2,0 -1,1 -5,28 -7,34 0,1 -1,1 -1,1 -2,1 -8,-9 -9,-11 0,-1 0,-1 0,-1 -2,-2 -4,-7 -6,-8 -2,2 -3,11 -5,12 0,1 -1,0 -2,0 -1,-1 -2,-1 -2,-2 -2,-1 -3,-2 -5,-3 -2,-1 -8,-6 -8,0 0,5 4,16 3,19 -3,0 -9,-2 -11,-1zm121 303c-8,-6 -16,-12 -23,-19 4,1 7,1 9,1 5,1 13,3 18,5l-4 13zm-82 -179l-1 1c3,5 16,19 21,24 2,3 4,4 2,6 -1,1 -4,2 -5,2 -2,1 -5,3 -6,4 2,2 14,3 17,4 6,1 14,2 19,4l-7 19c-1,3 0,3 1,5l2 1c2,-1 3,-1 4,-3l6 -20c5,2 13,5 18,8 3,1 13,7 16,7 0,-3 -5,-9 -5,-12 -1,-2 1,-2 4,-3 8,-1 26,-5 32,-7l0 -1c-1,-2 -7,-4 -9,-6 0,-3 10,-9 14,-13 3,-5 -5,-5 -8,-5 -1,0 -3,0 -5,0 -1,0 -4,0 -5,-1 -1,-2 4,-10 4,-13 -2,0 -5,1 -7,2l-4 2c-1,0 -1,0 -2,0 -1,1 -10,5 -11,4 -1,-1 0,-4 1,-5 2,-5 14,-28 13,-29 0,0 1,0 0,0 -2,-1 -11,0 -13,0 -1,-2 -2,-9 -2,-12 -1,-5 -1,-8 -3,-12l0 0c-1,0 -1,1 -1,1 -5,3 -14,14 -16,16 -2,-1 -5,-4 -6,-5l-4 -3c-1,-1 -1,-1 -2,0 -1,1 -4,28 -7,34 0,1 0,1 -1,2 -1,0 -7,-10 -8,-12 0,-1 0,-1 -1,-1 -1,-2 -4,-7 -5,-8 -3,2 -4,12 -5,12 -1,1 -2,0 -3,0 -1,-1 -1,-1 -2,-2 -2,-1 -3,-2 -4,-3 -3,-1 -9,-6 -9,0 0,5 5,16 4,19 -3,0 -9,-2 -11,-1zm574 55l6 0c0,1 0,2 -1,3 0,1 0,2 -1,2 -1,0 -3,-2 -4,-5zm-392 113l0 1c3,5 15,19 20,24 3,3 4,4 3,5 -2,2 -5,3 -6,3 -2,1 -5,2 -5,4 2,2 14,3 17,4 5,1 13,2 18,4l-6 19c-1,3 0,3 1,5l2 1c2,-1 3,-1 3,-4l7 -19c5,2 12,5 17,7 3,2 14,8 16,8 1,-3 -4,-9 -5,-12 0,-2 2,-2 5,-3 7,-1 26,-5 31,-8l0 0c-1,-2 -7,-4 -9,-6 1,-3 11,-9 14,-13 3,-5 -4,-5 -7,-5 -2,0 -4,0 -5,0 -1,0 -5,0 -5,-1 -1,-2 3,-10 3,-13 -2,0 -5,1 -6,2l-5 2c0,0 0,0 -1,0 -1,1 -11,5 -12,4 -1,-1 1,-4 1,-5 2,-5 14,-28 14,-29 0,0 1,0 -1,-1 -1,0 -11,1 -13,1 -1,-2 -1,-9 -2,-12 0,-5 0,-8 -2,-12l0 0c-1,0 -1,0 -2,1 -4,3 -13,14 -16,16 -2,-1 -4,-4 -5,-5l-4 -3c-2,-1 -2,-1 -2,0 -2,1 -5,28 -7,34 0,1 -1,1 -1,1 -2,1 -8,-9 -9,-11 0,-1 0,-1 0,-1 -2,-2 -4,-7 -6,-8 -2,2 -3,11 -5,12 0,1 -1,0 -2,0 -1,-1 -2,-1 -2,-2 -2,-1 -3,-2 -5,-3 -2,-1 -8,-6 -8,0 0,5 4,16 3,19 -3,0 -9,-2 -11,-1zm200 95l-3 0 0 -1c1,1 2,1 3,1zm-41 -208l15 0c-2,3 -5,6 -6,7 -2,-1 -5,-3 -6,-5l-3 -2zm88 86l0 1c2,5 15,19 20,25 2,2 4,4 2,5 -1,1 -4,2 -5,3 -2,1 -5,2 -6,3 2,2 14,3 18,4 5,1 13,3 18,5l-7 19c0,2 0,3 2,4l1 1c2,-1 3,0 4,-3l6 -19c5,1 13,5 18,7 3,1 13,7 16,7 0,-2 -5,-9 -5,-12 -1,-2 1,-2 5,-2 7,-2 25,-5 31,-8l0 -1c-1,-2 -7,-4 -9,-6 1,-3 10,-8 14,-13 3,-4 -5,-4 -7,-4 -2,-1 -4,-1 -6,-1 -1,0 -4,0 -5,-1 0,-2 4,-10 4,-13 -2,0 -5,2 -7,2l-4 2c-1,0 -1,0 -1,1 -2,0 -11,5 -12,3 -1,-1 0,-4 1,-5 2,-5 14,-27 14,-29 -1,0 0,0 -1,0 -2,-1 -11,1 -13,0 -1,-2 -2,-9 -2,-12 -1,-4 -1,-7 -2,-11l-1 -1c0,1 -1,1 -1,1 -4,3 -13,14 -16,16 -2,-1 -4,-3 -6,-4l-4 -4c-1,-1 -1,0 -2,0 -1,1 -4,28 -6,34 -1,1 -1,2 -2,2 -1,0 -7,-10 -8,-12 0,0 0,0 -1,-1 -1,-2 -3,-7 -5,-8 -2,3 -3,12 -5,13 -1,0 -1,0 -3,-1 0,-1 -1,-1 -2,-2 -1,-1 -3,-2 -4,-2 -3,-2 -9,-6 -9,-1 1,6 5,16 4,19 -3,0 -9,-2 -11,-1zm143 47l0 1c2,5 15,19 20,25 2,2 4,4 2,5 -1,1 -4,2 -5,3 -2,1 -5,2 -5,3 1,2 13,3 17,4 5,1 13,3 18,5l-6 19c-1,2 -1,3 1,4l1 1c2,-1 3,0 4,-3l6 -19c5,1 13,5 18,7 3,1 13,7 16,7 0,-2 -5,-9 -5,-12 -1,-1 1,-2 5,-2 7,-2 26,-5 31,-8l0 -1c-1,-2 -7,-4 -9,-6 1,-3 11,-8 14,-13 3,-4 -5,-4 -7,-4 -2,-1 -4,-1 -6,-1 -1,0 -4,0 -5,-1 0,-1 4,-9 4,-12 -2,-1 -5,1 -7,1l-4 2c0,0 -1,0 -1,1 -2,0 -11,5 -12,3 -1,-1 0,-4 1,-5 2,-5 14,-27 14,-28 -1,-1 0,-1 -1,-1 -2,-1 -11,1 -13,0 -1,-2 -2,-9 -2,-12 0,-4 -1,-7 -2,-11l-1 -1c0,1 -1,1 -1,1 -4,3 -13,14 -16,16 -2,-1 -4,-3 -6,-4l-4 -4c-1,0 -1,0 -1,0 -2,1 -5,28 -7,34 -1,1 -1,2 -2,2 -1,0 -7,-10 -8,-12 0,0 0,0 -1,-1 -1,-2 -3,-7 -5,-7 -2,2 -3,11 -5,12 -1,0 -1,0 -3,-1 0,0 -1,-1 -2,-1 -1,-1 -3,-2 -4,-3 -3,-2 -8,-6 -8,-1 0,6 4,16 3,19 -3,0 -9,-2 -11,-1z"/>
  <path class="fil3" d="M835 417c0,76 -18,146 -55,210l-1 0 -361 0c-58,0 -107,-20 -148,-61l0 0c41,40 90,60 148,60 58,0 107,-20 148,-61 41,-40 61,-90 61,-148l0 -209 208 0 0 209zm-420 418c-22,0 -44,-2 -65,-5 21,3 43,5 65,5zm-293 -121c-25,-26 -48,-55 -66,-87 -26,-44 -43,-91 -51,-140 9,49 25,96 51,140 19,32 41,61 66,87zm-122 -297l0 -417 208 0 0 56c-64,37 -114,88 -152,152 -37,64 -56,134 -56,209z"/>
  <g style="clip-path:url(#id1)">
   <g id="_2752993003632">
    <rect class="fil1 str0" x="1563" y="576" width="193" height="187"/>
   </g>
  </g>
  <path class="fil2" d="M835 417c0,76 -18,146 -55,210l-1 0 -361 0c-58,0 -107,-20 -148,-61l0 0c41,40 90,60 148,60 58,0 107,-20 148,-61 41,-40 61,-90 61,-148l0 -209 208 0 0 209zm-420 418c-22,0 -44,-2 -65,-5 21,3 43,5 65,5zm-293 -121c-25,-26 -48,-55 -66,-87 -26,-44 -43,-91 -51,-140 9,49 25,96 51,140 19,32 41,61 66,87zm-122 -297l0 -417 208 0 0 56c-64,37 -114,88 -152,152 -37,64 -56,134 -56,209z"/>
  <path class="fil4" d="M384 384l0 -33 -16 0c-5,0 -8,2 -12,5 -3,4 -4,7 -4,12 0,5 1,8 4,12 4,3 7,4 12,4l16 0zm67 -33l0 33 16 0c23,0 43,9 59,25 16,16 24,36 24,58 0,23 -8,43 -24,59 -16,16 -36,24 -59,24l-16 0 0 33 -67 0 0 -33 -99 0 0 -66 99 0 0 -33 -16 0c-23,0 -43,-8 -59,-25 -16,-16 -24,-35 -24,-58 0,-23 8,-42 24,-58 16,-16 36,-25 59,-25l0 0 16 0 0 -33 67 0 0 33 99 0 0 66 -99 0zm0 100l0 33 16 0c5,0 9,-2 12,-5 3,-3 5,-7 5,-12 0,-4 -2,-8 -5,-11 -3,-4 -7,-5 -12,-5l-16 0z"/>
 </g>
</svg>
