<?xml version="1.0" encoding="UTF-8"?>
<!DOCTYPE svg PUBLIC "-//W3C//DTD SVG 1.0//EN" "http://www.w3.org/TR/2001/REC-SVG-20010904/DTD/svg10.dtd">
<!-- Creator: CorelDRAW X8 -->
<svg xmlns="http://www.w3.org/2000/svg" xml:space="preserve" width="100%" height="100%" version="1.0" style="shape-rendering:geometricPrecision; text-rendering:geometricPrecision; image-rendering:optimizeQuality; fill-rule:evenodd; clip-rule:evenodd"
viewBox="0 0 5000 5000"
 xmlns:xlink="http://www.w3.org/1999/xlink">
 <defs>
  <style type="text/css">
   <![CDATA[
    .fil0 {fill:#333333}
    .fil2 {fill:#CC9933}
    .fil1 {fill:white}
   ]]>
  </style>
 </defs>
 <g id="Layer_x0020_1">
  <metadata id="CorelCorpID_0Corel-Layer"/>
  <g id="_2301668086832">
   <path class="fil0" d="M194 2659c6,-13 75,-78 91,-93l273 -274c11,3 16,12 24,20l148 148c281,281 567,564 844,845 29,29 55,58 84,86 25,24 56,54 96,72 36,16 96,28 140,31 76,3 90,-12 143,-26 15,13 36,40 48,51 5,4 10,6 15,10 4,4 8,8 12,12 5,4 9,7 13,12 32,35 61,58 85,83 25,27 39,37 61,59l165 147c-17,14 -39,28 -59,42 -143,99 -330,186 -512,186 -119,1 -216,-37 -301,-86 -61,-36 -163,-113 -215,-170 -15,-16 -32,-32 -48,-48l-915 -914c-23,-24 -175,-173 -192,-193zm2219 -2659l134 0 1 0c28,0 50,2 75,2 23,0 49,4 72,5 37,0 101,9 139,14 155,23 296,53 441,101 76,24 148,54 222,84 8,3 17,7 26,12 10,4 17,7 27,12 96,46 184,93 275,149l92 60c37,27 75,52 111,82 8,6 14,11 22,17l85 70c27,22 83,78 99,91 29,21 52,52 77,78l127 143c30,35 57,71 84,109 42,60 85,121 123,185 9,16 19,31 28,48 5,9 9,17 14,26l78 151c21,43 40,88 58,134 45,114 82,227 110,350 44,185 67,381 67,578 0,196 -22,392 -67,578 -39,160 -97,339 -170,485 -12,24 -24,53 -37,77 -48,86 -88,160 -143,242 -11,16 -20,30 -31,45 -50,77 -109,149 -170,217l-90 100c-46,45 -91,89 -139,132l-41 34c-42,37 -86,70 -130,103 -52,39 -105,77 -161,110 -56,33 -112,67 -171,97 -284,144 -565,229 -888,266 -56,6 -118,11 -175,13l-134 0c-75,0 -145,-7 -219,-13 -108,-10 -226,-32 -326,-57 -101,-25 -199,-55 -295,-91 -73,-27 -145,-59 -214,-93 -166,-83 -278,-156 -426,-265 -8,-7 -14,-12 -22,-18 -8,-5 -14,-11 -21,-17 -7,-6 -14,-11 -21,-17l-103 -89c-11,-9 -19,-21 -30,-29 -17,-14 -32,-31 -48,-46l-104 -111c-57,-61 -110,-133 -160,-202l-47 -69c-31,-46 -62,-93 -88,-142 -61,-113 -102,-189 -150,-310 -46,-114 -83,-231 -111,-350 -20,-81 -38,-170 -48,-259 -2,-23 -5,-48 -8,-70 -3,-24 -3,-46 -6,-71 -5,-47 -6,-100 -6,-152l0 -65c0,-102 10,-196 20,-288 17,-150 55,-298 99,-440 6,-21 12,-37 19,-58 22,-66 49,-128 76,-192l36 -79c9,-17 17,-33 26,-51l54 -100c6,-9 10,-16 15,-25 30,-56 114,-183 153,-230 6,-7 11,-14 17,-21 27,-37 58,-72 87,-108 33,-41 128,-143 167,-177l20 -18c23,-23 56,-54 81,-73l20 -18c39,-33 87,-72 129,-101l68 -49c8,-5 15,-9 23,-15 70,-47 143,-88 217,-130l75 -38c70,-35 142,-67 216,-93l55 -21c136,-54 355,-98 495,-118 24,-3 45,-5 70,-8 56,-6 118,-11 175,-13zm-745 2583c0,-195 117,-354 237,-481l109 -110c9,-8 22,-25 33,-29l393 393c-4,9 -11,15 -18,21 -35,31 -87,102 -111,140 -42,69 -46,149 -26,236 20,86 54,137 96,193 30,38 57,64 84,96l53 55c25,24 49,47 74,71 7,7 11,12 17,19l110 107c91,82 165,143 302,165 136,23 221,-36 309,-116l1046 -1042c10,-10 26,-29 36,-35l395 395c-9,12 -35,36 -47,48l-706 706c-126,126 -250,250 -377,376 -95,95 -267,255 -476,276 -201,19 -441,-90 -572,-175 -64,-42 -108,-72 -166,-118 -17,-14 -34,-29 -52,-43 -35,-27 -64,-60 -97,-90l-37 -35c-20,-23 -36,-36 -59,-57 -16,-16 -31,-33 -48,-48l-49 -45 -111 -124c-165,-191 -342,-482 -342,-749zm1409 -1652l394 395 -517 517c-10,-5 -186,-184 -199,-197 -58,-59 -143,-140 -197,-198l519 -517zm-1154 -1l383 384c128,128 255,254 383,383 128,128 256,254 383,383 99,101 258,281 258,507 0,209 -124,465 -248,625 -14,18 -112,148 -130,158 -68,-23 -120,-70 -170,-112 -5,-5 -8,-8 -13,-12l-104 -104c-9,-8 -16,-14 -24,-23 -31,-29 -65,-59 -93,-91 30,-38 52,-58 87,-106 27,-37 50,-76 66,-127 40,-120 32,-211 -31,-304 -14,-21 -27,-36 -41,-55l-1102 -1110 396 -396z"/>
   <path class="fil1" d="M1668 2583c0,267 177,558 342,749l111 124 49 45c17,15 32,32 48,48 23,21 39,34 59,57l37 35c33,30 62,63 97,90 18,14 35,29 52,43 58,46 102,76 166,118 131,85 371,194 572,175 209,-21 381,-181 476,-276 127,-126 251,-250 377,-376l706 -706c12,-12 38,-36 47,-48l-395 -395c-10,6 -26,25 -36,35l-1046 1042c-88,80 -173,139 -309,116 -137,-22 -211,-83 -302,-165l-110 -107c-6,-7 -10,-12 -17,-19 -25,-24 -49,-47 -74,-71l-53 -55c-27,-32 -54,-58 -84,-96 -42,-56 -76,-107 -96,-193 -20,-87 -16,-167 26,-236 24,-38 76,-109 111,-140 7,-6 14,-12 18,-21l-393 -393c-11,4 -24,21 -33,29l-109 110c-120,127 -237,286 -237,481z"/>
   <path class="fil2" d="M1527 1326l1102 1110c14,19 27,34 41,55 63,93 71,184 31,304 -16,51 -39,90 -66,127 -35,48 -57,68 -87,106 28,32 62,62 93,91 8,9 15,15 24,23l104 104c5,4 8,7 13,12 50,42 102,89 170,112 18,-10 116,-140 130,-158 124,-160 248,-416 248,-625 0,-226 -159,-406 -258,-507 -127,-129 -255,-255 -383,-383 -128,-129 -255,-255 -383,-383l-383 -384 -396 396z"/>
   <path class="fil2" d="M194 2659c17,20 169,169 192,193l915 914c16,16 33,32 48,48 52,57 154,134 215,170 85,49 182,87 301,86 182,0 369,-87 512,-186 20,-14 42,-28 59,-42l-165 -147c-22,-22 -36,-32 -61,-59 -24,-25 -53,-48 -85,-83 -4,-5 -8,-8 -13,-12 -4,-4 -8,-8 -12,-12 -5,-4 -10,-6 -15,-10 -12,-11 -33,-38 -48,-51 -53,14 -67,29 -143,26 -44,-3 -104,-15 -140,-31 -40,-18 -71,-48 -96,-72 -29,-28 -55,-57 -84,-86 -277,-281 -563,-564 -844,-845l-148 -148c-8,-8 -13,-17 -24,-20l-273 274c-16,15 -85,80 -91,93z"/>
   <path class="fil1" d="M2558 1448c54,58 139,139 197,198 13,13 189,192 199,197l517 -517 -394 -395 -519 517z"/>
  </g>
 </g>
</svg>
