<?xml version="1.0" encoding="UTF-8"?>
<!DOCTYPE svg PUBLIC "-//W3C//DTD SVG 1.0//EN" "http://www.w3.org/TR/2001/REC-SVG-20010904/DTD/svg10.dtd">
<!-- Creator: CorelDRAW X8 -->
<svg xmlns="http://www.w3.org/2000/svg" xml:space="preserve" width="100%" height="100%" version="1.0" style="shape-rendering:geometricPrecision; text-rendering:geometricPrecision; image-rendering:optimizeQuality; fill-rule:evenodd; clip-rule:evenodd"
viewBox="0 0 820 820"
 xmlns:xlink="http://www.w3.org/1999/xlink">
 <defs>
  <style type="text/css">
   <![CDATA[
    .str0 {stroke:black;stroke-width:6.94488}
    .fil3 {fill:none}
    .fil1 {fill:red}
    .fil2 {fill:yellow}
    .fil0 {fill:#373435;fill-rule:nonzero}
   ]]>
  </style>
   <clipPath id="id0">
    <path d="M513 514l0 305 -205 0 0 -305 -308 0 0 -208 161 0 -160 -161 0 -145 144 0 163 163 103 103 102 -103 162 -163 144 0 0 145 -160 161 160 0 0 208 -306 0z"/>
   </clipPath>
 </defs>
 <g id="Layer_x0020_1">
  <metadata id="CorelCorpID_0Corel-Layer"/>
  <path class="fil0" d="M820 411c0,74 -18,142 -55,205 -36,63 -86,113 -149,150 -63,36 -131,54 -204,54 -75,0 -143,-18 -207,-54 -63,-37 -113,-87 -149,-150 -37,-63 -56,-131 -56,-205l0 -410 204 0 0 410c0,56 21,105 61,144 40,40 89,60 146,60 57,0 105,-20 145,-60 41,-39 61,-88 61,-144l0 -410 203 0 0 410z"/>
  <polygon class="fil1" points="513,514 513,819 308,819 308,514 0,514 0,306 161,306 1,145 1,0 145,0 308,163 411,266 513,163 675,0 819,0 819,145 659,306 819,306 819,514 "/>
  <g style="clip-path:url(#id0)">
   <g id="_2717097740320">
    <rect class="fil2 str0" x="1521" y="479" width="309" height="244"/>
    <polygon class="fil2" points="410,284 430,346 494,346 442,384 462,445 410,407 358,445 378,384 325,346 390,346 "/>
    <polygon class="fil2" points="230,339 237,362 261,361 242,376 249,398 230,384 210,398 218,376 198,361 222,362 "/>
    <polygon class="fil2" points="547,254 565,270 586,258 576,280 594,296 570,293 560,315 555,292 531,289 552,277 "/>
    <polygon class="fil2" points="468,201 491,206 503,186 505,210 529,214 507,224 510,248 494,230 472,240 484,219 "/>
    <polygon class="fil2" points="269,253 264,276 285,288 261,291 256,314 246,292 222,295 240,279 230,257 251,269 "/>
    <polygon class="fil2" points="346,198 330,216 342,236 320,227 304,244 306,221 284,211 308,206 310,182 322,203 "/>
    <polygon class="fil2" points="590,339 597,362 621,361 602,376 609,398 590,384 570,398 578,376 558,361 582,362 "/>
    <polygon class="fil2" points="294,509 317,514 329,494 332,517 355,522 333,532 336,556 320,538 298,548 310,527 "/>
    <polygon class="fil2" points="532,513 516,531 528,552 506,542 490,560 492,536 470,526 494,521 496,497 508,518 "/>
    <polygon class="fil2" points="239,433 257,449 278,437 268,459 286,475 262,472 252,494 247,471 223,468 244,456 "/>
    <polygon class="fil2" points="584,434 579,457 600,469 576,472 571,495 561,473 537,476 555,460 546,438 566,450 "/>
    <polygon class="fil2" points="445,546 426,560 433,582 414,568 394,582 402,560 382,546 407,546 414,523 421,546 "/>
    <polygon class="fil2" points="445,661 426,675 433,698 414,684 394,698 402,675 382,661 407,661 414,638 421,661 "/>
    <polygon class="fil2" points="445,768 426,782 433,804 414,790 394,804 402,782 382,768 407,768 414,745 421,768 "/>
    <polygon class="fil2" points="694,339 702,362 726,361 706,376 714,398 694,384 675,398 682,376 663,361 687,362 "/>
    <polygon class="fil2" points="791,339 799,362 823,361 803,376 811,398 791,384 772,398 779,376 760,361 784,362 "/>
    <polygon class="fil2" points="130,339 138,362 162,361 142,376 150,398 130,384 111,398 118,376 99,361 123,362 "/>
    <polygon class="fil2" points="31,339 39,362 63,361 43,376 51,398 31,384 12,398 19,376 0,361 24,362 "/>
    <polygon class="fil2" points="674,486 669,509 689,521 665,524 660,547 651,525 627,528 645,512 635,490 656,502 "/>
    <polygon class="fil2" points="150,483 168,499 189,487 179,509 197,525 173,522 163,544 159,521 135,518 155,507 "/>
    <polygon class="fil2" points="31,339 39,362 63,361 43,376 51,398 31,384 12,398 19,376 0,361 24,362 "/>
    <polygon class="fil2" points="639,201 657,217 678,205 668,227 686,243 662,240 652,262 647,239 623,236 644,224 "/>
    <polygon class="fil2" points="522,109 546,114 558,94 560,118 584,123 562,132 564,156 548,138 526,148 538,127 "/>
    <polygon class="fil2" points="723,152 741,169 762,157 752,178 770,194 746,192 736,214 731,190 707,188 728,176 "/>
    <polygon class="fil2" points="185,204 180,227 201,239 177,241 172,265 162,243 138,246 156,230 146,208 167,220 "/>
    <polygon class="fil2" points="300,114 284,132 296,153 274,143 258,161 261,137 239,127 262,122 265,98 276,119 "/>
    <polygon class="fil2" points="99,154 94,178 115,190 91,192 86,216 77,194 53,196 71,180 61,158 82,170 "/>
    <polygon class="fil2" points="622,97 648,110 668,89 664,118 690,130 662,135 658,164 644,139 615,144 636,123 "/>
    <polygon class="fil2" points="703,12 729,25 749,4 745,32 772,45 743,50 739,79 725,53 697,59 717,38 "/>
    <polygon class="fil2" points="733,239 750,263 778,254 760,277 776,301 749,292 731,315 732,286 705,276 733,268 "/>
    <polygon class="fil2" points="293,696 322,694 329,665 340,692 369,690 347,709 358,736 333,720 311,739 318,711 "/>
    <polygon class="fil2" points="77,431 93,456 121,447 103,470 120,494 92,484 74,508 75,478 48,469 76,461 "/>
    <polygon class="fil2" points="94,255 96,284 125,291 98,302 100,331 81,309 54,320 69,295 51,273 79,280 "/>
    <polygon class="fil2" points="469,713 493,697 485,669 508,687 532,670 522,698 545,716 516,715 506,742 498,714 "/>
    <polygon class="fil2" points="192,105 188,134 214,146 185,152 182,180 168,155 139,160 159,139 145,113 172,126 "/>
    <polygon class="fil2" points="759,417 761,446 790,453 763,464 765,493 746,471 719,482 735,457 716,435 744,442 "/>
    <polygon class="fil2" points="107,24 103,53 129,65 100,71 97,99 83,74 54,79 74,58 60,32 87,45 "/>
    <polygon class="fil2" points="813,59 846,88 883,65 866,105 899,133 856,129 839,169 829,127 787,123 823,101 "/>
    <polygon class="fil2" points="1,81 -7,123 31,144 -12,149 -20,192 -38,153 -80,158 -49,129 -68,90 -30,111 "/>
   </g>
  </g>
  <polygon class="fil3" points="513,514 513,819 308,819 308,514 0,514 0,306 161,306 1,145 1,0 145,0 308,163 411,266 513,163 675,0 819,0 819,145 659,306 819,306 819,514 "/>
 </g>
</svg>
